<?xml version="1.0" encoding="UTF-8"?>
<svg version="1.1" xmlns="http://www.w3.org/2000/svg" width="400" height="400">
<path d="M0 0 C132 0 264 0 400 0 C400 132 400 264 400 400 C268 400 136 400 0 400 C0 268 0 136 0 0 Z " fill="#4D54DE" transform="translate(0,0)"/>
<path d="M0 0 C-0.33 0.99 -0.66 1.98 -1 3 C0.32 3.99 1.64 4.98 3 6 C2.67 7.32 2.34 8.64 2 10 C2.99 10.66 3.98 11.32 5 12 C5 10.68 5 9.36 5 8 C5.66 8 6.32 8 7 8 C7.495 9.98 7.495 9.98 8 12 C9.32 12 10.64 12 12 12 C11.67 12.99 11.34 13.98 11 15 C11 15.33 11 15.66 11 16 C12.43640171 16.19573608 13.87419504 16.38127816 15.3125 16.5625 C16.11300781 16.66691406 16.91351563 16.77132812 17.73828125 16.87890625 C20.16817116 17.14755178 20.16817116 17.14755178 23 16 C23.66 16.33 24.32 16.66 25 17 C25 18.32 25 19.64 25 21 C26.41977909 23.22743787 26.41977909 23.22743787 28 25 C28.680625 24.855625 29.36125 24.71125 30.0625 24.5625 C33.36273082 23.93054091 36.67144426 23.45686059 40 23 C40.66 20.69 41.32 18.38 42 16 C43.485 16.495 43.485 16.495 45 17 C45.495 16.505 45.495 16.505 46 16 C48.33333333 16 50.66666667 16 53 16 C53.33 15.67 53.66 15.34 54 15 C53.01 14.34 52.02 13.68 51 13 C52 12 52 12 54.5625 11.9375 C55.366875 11.958125 56.17125 11.97875 57 12 C57.495 13.485 57.495 13.485 58 15 C57.67 15.66 57.34 16.32 57 17 C58.98 17 60.96 17 63 17 C63 17.66 63 18.32 63 19 C63.9075 18.649375 64.815 18.29875 65.75 17.9375 C68.87758436 17.03531221 70.05208081 16.86618493 73 18 C73 19.65 73 21.3 73 23 C73.33 23 73.66 23 74 23 C74.33 19.7 74.66 16.4 75 13 C74.67 13 74.34 13 74 13 C73.80448662 11.39679026 73.61888017 9.79237014 73.4375 8.1875 C73.28087891 6.84751953 73.28087891 6.84751953 73.12109375 5.48046875 C73 3 73 3 74 0 C74.66 0 75.32 0 76 0 C76 0.66 76 1.32 76 2 C76.66 1.34 77.32 0.68 78 0 C79.875 0.375 79.875 0.375 82 1 C83.32 1 84.64 1 86 1 C86.99 1.495 86.99 1.495 88 2 C88 2.66 88 3.32 88 4 C88.66 4 89.32 4 90 4 C90.33 6.97 90.66 9.94 91 13 C91.33 12.01 91.66 11.02 92 10 C93.60379341 9.94583812 95.20811406 9.90713362 96.8125 9.875 C97.70582031 9.85179687 98.59914063 9.82859375 99.51953125 9.8046875 C102 10 102 10 105 12 C105.6875 14.125 105.6875 14.125 106 16 C108.31 16.33 110.62 16.66 113 17 C113 19.31 113 21.62 113 24 C114.32 24.33 115.64 24.66 117 25 C116.68991116 26.60463449 116.37683713 28.20869231 116.0625 29.8125 C115.88847656 30.70582031 115.71445312 31.59914062 115.53515625 32.51953125 C115 35 115 35 114 38 C114.66 38.33 115.32 38.66 116 39 C115.67 39.66 115.34 40.32 115 41 C114.7677354 43.71262116 114.58063765 46.40773126 114.4375 49.125 C114.37272461 50.25615234 114.37272461 50.25615234 114.30664062 51.41015625 C114.2005168 53.27321888 114.09974999 55.13658524 114 57 C109.38 57 104.76 57 100 57 C100 51.39 100 45.78 100 40 C99.01 40.33 98.02 40.66 97 41 C96.34 40.67 95.68 40.34 95 40 C95 39.34 95 38.68 95 38 C94.01 38.495 94.01 38.495 93 39 C91.51309578 43.46071266 91.66348705 47.9743109 91.4765625 52.65234375 C90.98416632 56.11122511 90.42351561 57.54671147 88 60 C85.9375 60.8125 85.9375 60.8125 84 61 C83.34 60.67 82.68 60.34 82 60 C82 60.99 82 61.98 82 63 C80.1875 62.9375 80.1875 62.9375 78 62 C76.25 58.4375 76.25 58.4375 75 55 C69.42126293 55.92076243 64.72253931 56.70853321 60 60 C58.515 60.495 58.515 60.495 57 61 C57 61.66 57 62.32 57 63 C55.56068883 62.54738642 54.12361001 62.08767021 52.6875 61.625 C51.88699219 61.36976563 51.08648437 61.11453125 50.26171875 60.8515625 C48 60 48 60 45 58 C45 57.34 45 56.68 45 56 C42.03 55.34 39.06 54.68 36 54 C35.90203125 53.30132812 35.8040625 52.60265625 35.703125 51.8828125 C35.55359375 50.97273438 35.4040625 50.06265625 35.25 49.125 C35.04117188 47.76761719 35.04117188 47.76761719 34.828125 46.3828125 C34.22016157 43.83785757 34.22016157 43.83785757 31.921875 42.6796875 C31.28765625 42.45539063 30.6534375 42.23109375 30 42 C30.33 42.99 30.66 43.98 31 45 C28.46856562 50.15819475 24.54650093 54.12106652 19.26953125 56.37109375 C13.23486139 58.04335166 7.23470782 58.09920358 1.625 55.125 C-3.65455763 51.268533 -6.30980645 45.75080594 -7.4765625 39.41015625 C-7.84602711 33.10008955 -6.07079598 28.7787605 -2 24 C0.6875 21.625 0.6875 21.625 3 20 C3.66 19.34 4.32 18.68 5 18 C4.195625 17.87625 3.39125 17.7525 2.5625 17.625 C1.2940625 17.315625 1.2940625 17.315625 0 17 C-0.495 16.01 -0.495 16.01 -1 15 C-5.95 15 -10.9 15 -16 15 C-16 28.53 -16 42.06 -16 56 C-19.63 56 -23.26 56 -27 56 C-27 42.47 -27 28.94 -27 15 C-31.95 15 -36.9 15 -42 15 C-42.125 5.25 -42.125 5.25 -41 3 C-33.52721206 1.24034351 -25.46334345 2.053671 -17.875 2.4375 C-16.72773438 2.48970703 -15.58046875 2.54191406 -14.3984375 2.59570312 C-11.59859037 2.72402945 -8.79922844 2.85891889 -6 3 C-5.67 2.34 -5.34 1.68 -5 1 C-3 0 -3 0 0 0 Z M6 12 C5.67 12.66 5.34 13.32 5 14 C5.66 14.66 6.32 15.32 7 16 C7.33 14.68 7.66 13.36 8 12 C7.34 12 6.68 12 6 12 Z M116 37 C116.66 37 117.32 37 118 37 C117.67 37.66 117.34 38.32 117 39 C116.67 38.34 116.34 37.68 116 37 Z " fill="#346ADA" transform="translate(231,168)"/>
<path d="M0 0 C0.99 0.66 1.98 1.32 3 2 C4.9896995 2.39013716 6.99019869 2.73202649 9 3 C9 2.01 9 1.02 9 0 C13 0 13 0 15.6875 2.3125 C18 5 18 5 19 8 C18.67 8.33 18.34 8.66 18 9 C17.92741054 11.18639453 17.91626217 13.37500389 17.9375 15.5625 C17.94652344 16.76003906 17.95554687 17.95757812 17.96484375 19.19140625 C17.97644531 20.11824219 17.98804687 21.04507813 18 22 C19.485 22.2475 19.485 22.2475 21 22.5 C21.8353125 22.63921875 21.8353125 22.63921875 22.6875 22.78125 C26.12937799 23.10683305 29.54332402 23.02880563 33 23 C32.96447021 22.43490723 32.92894043 21.86981445 32.89233398 21.28759766 C32.73498198 18.73371428 32.58613992 16.1794046 32.4375 13.625 C32.35338867 12.29082031 32.35338867 12.29082031 32.26757812 10.9296875 C32.21923828 10.07890625 32.17089844 9.228125 32.12109375 8.3515625 C32.0739624 7.56604004 32.02683105 6.78051758 31.97827148 5.97119141 C32 4 32 4 33 2 C32.01 2.33 31.02 2.66 30 3 C30 2.34 30 1.68 30 1 C31.32 0.67 32.64 0.34 34 0 C34.495 0.99 34.495 0.99 35 2 C37.52733235 2.65555119 37.52733235 2.65555119 40 3 C40.33 2.01 40.66 1.02 41 0 C41.66 0 42.32 0 43 0 C43.495 0.99 43.495 0.99 44 2 C44.99 2 45.98 2 47 2 C47.5775 2.804375 48.155 3.60875 48.75 4.4375 C50.86647953 7.36019679 50.86647953 7.36019679 54.75 7.8125 C55.8225 7.874375 56.895 7.93625 58 8 C59.20628008 5.66785852 60.1654738 3.50357861 61 1 C61.53625 1.350625 62.0725 1.70125 62.625 2.0625 C67.45546289 3.96926167 72.32390135 1.67003523 77 0 C77 0.66 77 1.32 77 2 C79.475 1.505 79.475 1.505 82 1 C82.495 1.99 82.495 1.99 83 3 C85.35599235 3.46751788 85.35599235 3.46751788 88.0625 3.625 C89.44115234 3.73714844 89.44115234 3.73714844 90.84765625 3.8515625 C91.55792969 3.90054688 92.26820313 3.94953125 93 4 C92.979375 4.763125 92.95875 5.52625 92.9375 6.3125 C92.87057159 9.10185786 92.87057159 9.10185786 94 12 C94.99 12 95.98 12 97 12 C97.37125 10.5459375 97.37125 10.5459375 97.75 9.0625 C98.1625 8.051875 98.575 7.04125 99 6 C101.078125 5.30859375 101.078125 5.30859375 103 5 C103.00586624 5.58215775 103.01173248 6.16431549 103.01777649 6.76411438 C103.08163534 12.81498961 103.16603504 18.86532924 103.26245117 24.91577148 C103.29573686 27.17481431 103.32375733 29.43394103 103.34643555 31.69311523 C103.37991426 34.93770148 103.43222718 38.18151633 103.48828125 41.42578125 C103.49467117 42.43836502 103.5010611 43.45094879 103.50764465 44.49421692 C103.52743881 45.43496567 103.54723297 46.37571442 103.56762695 47.3449707 C103.57873001 48.17325882 103.58983307 49.00154694 103.60127258 49.85493469 C104.09499113 52.51103126 104.87565857 53.37322075 107 55 C109.9195043 55.9731681 112.05444951 56.1929546 115.10546875 56.31640625 C116.57983398 56.37924805 116.57983398 56.37924805 118.08398438 56.44335938 C119.10814453 56.48267578 120.13230469 56.52199219 121.1875 56.5625 C122.22326172 56.60568359 123.25902344 56.64886719 124.32617188 56.69335938 C126.8839819 56.79944366 129.44188845 56.90150146 132 57 C131.34 57.99 130.68 58.98 130 60 C129.319375 59.835 128.63875 59.67 127.9375 59.5 C123.27626069 58.70659756 119.32941796 58.55686068 114.8125 60.0625 C111.92239738 61.02586754 110.7856106 61.07138869 108 60 C108 59.01 108 58.02 108 57 C105.36 56.67 102.72 56.34 100 56 C99.67 55.01 99.34 54.02 99 53 C98.278125 53.680625 97.55625 54.36125 96.8125 55.0625 C94 57 94 57 91.625 56.625 C90.75875 56.41875 89.8925 56.2125 89 56 C85.43315137 56.82861866 85.43315137 56.82861866 82 58 C80.66869885 58.34135927 79.33641852 58.67925956 78 59 C78.33 59.66 78.66 60.32 79 61 C77.35 61 75.7 61 74 61 C74 60.34 74 59.68 74 59 C73.35933594 58.87882812 72.71867187 58.75765625 72.05859375 58.6328125 C66.95071067 57.64320773 61.97749731 56.51489049 57 55 C57 54.01 57 53.02 57 52 C56.01 52 55.02 52 54 52 C53.505 52.99 53.505 52.99 53 54 C52.01 53.67 51.02 53.34 50 53 C50 51.35 50 49.7 50 48 C48.7778983 50.16515671 48.7778983 50.16515671 48.5625 53.5625 C48.2840625 55.2640625 48.2840625 55.2640625 48 57 C47.01 57.495 47.01 57.495 46 58 C46 57.34 46 56.68 46 56 C42.37 56 38.74 56 35 56 C35 49.07 35 42.14 35 35 C28.07 35 21.14 35 14 35 C14.07890963 41.7311212 14.07890963 41.7311212 14.18017578 48.46191406 C14.1851709 49.30463867 14.19016602 50.14736328 14.1953125 51.015625 C14.20578613 51.87446289 14.21625977 52.73330078 14.22705078 53.61816406 C13.98293323 56.17903596 13.28990512 57.79511029 12 60 C4.74131274 60.48391248 4.74131274 60.48391248 1.75 58.53125 C-0.81164964 54.82600677 -0.43923494 51.63879488 -0.25 47.25 C-0.23195312 46.45722656 -0.21390625 45.66445312 -0.1953125 44.84765625 C-0.14833082 42.89791652 -0.07659044 40.94880122 0 39 C-0.66 39 -1.32 39 -2 39 C-2.05787784 35.37506666 -2.0935542 31.75025143 -2.125 28.125 C-2.14175781 27.09246094 -2.15851562 26.05992187 -2.17578125 24.99609375 C-2.18222656 24.00996094 -2.18867187 23.02382812 -2.1953125 22.0078125 C-2.20578613 21.09660645 -2.21625977 20.18540039 -2.22705078 19.24658203 C-2 17 -2 17 0 15 C0.24281402 12.85709529 0.24281402 12.85709529 0.125 10.5 C0.10695312 9.7059375 0.08890625 8.911875 0.0703125 8.09375 C0.04710937 7.4028125 0.02390625 6.711875 0 6 C0 5.34 0 4.68 0 4 C-0.66 4 -1.32 4 -2 4 C-1 1 -1 1 0 0 Z " fill="#5B51C2" transform="translate(52,168)"/>
<path d="M0 0 C3.96 0 7.92 0 12 0 C12 6.6 12 13.2 12 20 C18.6 20 25.2 20 32 20 C32 13.4 32 6.8 32 0 C35.63 0 39.26 0 43 0 C43 16.83 43 33.66 43 51 C39.37 51 35.74 51 32 51 C32 44.07 32 37.14 32 30 C25.07 30 18.14 30 11 30 C11 36.93 11 43.86 11 51 C7.37 51 3.74 51 0 51 C0 34.17 0 17.34 0 0 Z " fill="#F2EDFA" transform="translate(55,173)"/>
<path d="M0 0 C5.05990398 3.11378706 8.36144852 7.19608353 10.0234375 12.9375 C10.0234375 14.2575 10.0234375 15.5775 10.0234375 16.9375 C6.62397941 17.28782583 3.40904655 17.47066678 0.0234375 16.9375 C-2.4140625 14.0625 -2.4140625 14.0625 -3.9765625 10.9375 C-7.08642457 8.86425862 -7.86764637 8.66357814 -11.4140625 8.6875 C-12.17589844 8.68234375 -12.93773438 8.6771875 -13.72265625 8.671875 C-17.01274317 9.05961488 -19.15783648 9.90651168 -21.2421875 12.53125 C-24.3632422 18.57519719 -25.23854034 24.38414751 -23.3984375 31.0234375 C-22.11570726 34.25755523 -20.65935812 36.73962283 -17.9765625 38.9375 C-13.6240191 40.2474083 -9.89881279 40.24491676 -5.6015625 38.8125 C-2.80132293 37.13786499 -2.80132293 37.13786499 -1.7265625 34.25 C-1.1490625 33.486875 -0.5715625 32.72375 0.0234375 31.9375 C3.39088832 31.48850656 6.64568643 31.65232402 10.0234375 31.9375 C9.51979048 37.4902084 8.44961056 41.09132574 4.2109375 44.875 C-1.97727041 49.9380792 -7.62556785 50.44370776 -15.45703125 50.3125 C-21.35709841 49.68385799 -25.50021319 47.5602345 -29.5625 43.2578125 C-35.53831528 35.48579841 -35.93763554 26.41815324 -35.27099609 16.96533203 C-34.38365935 10.85403935 -30.67409053 6.55419336 -26.3515625 2.4375 C-25.5678125 1.9425 -24.7840625 1.4475 -23.9765625 0.9375 C-23.16638672 0.4115625 -23.16638672 0.4115625 -22.33984375 -0.125 C-15.92577649 -2.66942337 -6.47295916 -2.3105576 0 0 Z " fill="#F7F4FB" transform="translate(138.9765625,174.0625)"/>
<path d="M0 0 C3.3 0 6.6 0 10 0 C10.33 5.61 10.66 11.22 11 17 C12.65 16.01 14.3 15.02 16 14 C20.65711224 13.10097485 24.17062988 13.56995623 28.375 15.75 C31.75593106 18.64794091 33.59179295 20.77537886 35 25 C35.08315752 27.06498892 35.10735878 29.1325789 35.09765625 31.19921875 C35.09443359 32.40771484 35.09121094 33.61621094 35.08789062 34.86132812 C35.07532227 36.7552832 35.07532227 36.7552832 35.0625 38.6875 C35.05798828 39.96173828 35.05347656 41.23597656 35.04882812 42.54882812 C35.03702873 45.69926564 35.02056597 48.84960949 35 52 C31.37 52 27.74 52 24 52 C23.94392578 49.34517578 23.94392578 49.34517578 23.88671875 46.63671875 C23.821071 44.32029088 23.75462326 42.00388558 23.6875 39.6875 C23.66494141 38.52025391 23.64238281 37.35300781 23.61914062 36.15039062 C23.58369141 35.03212891 23.54824219 33.91386719 23.51171875 32.76171875 C23.48553467 31.73006592 23.45935059 30.69841309 23.43237305 29.63549805 C23.20150599 26.98481413 23.20150599 26.98481413 21.65551758 25.16333008 C19.06859531 23.34550312 17.06552298 23.61680963 14 24 C12.23328372 25.10932803 12.23328372 25.10932803 11 27 C10.49454132 29.70484875 10.49454132 29.70484875 10.48828125 32.76171875 C10.45283203 33.87998047 10.41738281 34.99824219 10.38085938 36.15039062 C10.34702148 37.90125977 10.34702148 37.90125977 10.3125 39.6875 C10.27833984 40.86634766 10.24417969 42.04519531 10.20898438 43.25976562 C10.12642075 46.17308225 10.05729678 49.08609466 10 52 C6.7 52 3.4 52 0 52 C0 34.84 0 17.68 0 0 Z " fill="#D4E7FC" transform="translate(309,173)"/>
<path d="M0 0 C5.08395343 2.06905081 8.20731816 4.70288427 11.0625 9.375 C12 13 12 13 12 21 C3.42 21 -5.16 21 -14 21 C-12.34922098 24.75170424 -12.34922098 24.75170424 -10 28 C-7.70384446 28.23819228 -7.70384446 28.23819228 -5.0625 28.25 C-4.16660156 28.27578125 -3.27070313 28.3015625 -2.34765625 28.328125 C-1.18556641 28.16570312 -1.18556641 28.16570312 0 28 C0.66 27.01 1.32 26.02 2 25 C4.3828125 24.70703125 4.3828125 24.70703125 7.125 24.8125 C8.49011719 24.85310547 8.49011719 24.85310547 9.8828125 24.89453125 C10.58148438 24.92933594 11.28015625 24.96414062 12 25 C11.01603886 29.18405096 9.97952598 32.49711664 6.41015625 35.20703125 C0.83249358 38.43500372 -4.67496732 39.02343823 -11 38 C-16.32714607 36.20321683 -19.2679382 33.15847554 -22 28.3125 C-24.24748172 23.16775444 -25.13235598 18.5440149 -24 13 C-19.37971352 2.06217894 -11.3970438 -1.45256441 0 0 Z " fill="#F8FBFB" transform="translate(248,187)"/>
<path d="M0 0 C13.53 0 27.06 0 41 0 C41 3.3 41 6.6 41 10 C36.05 10 31.1 10 26 10 C26 23.53 26 37.06 26 51 C22.37 51 18.74 51 15 51 C15 37.47 15 23.94 15 10 C10.05 10 5.1 10 0 10 C0 6.7 0 3.4 0 0 Z " fill="#F7F9FC" transform="translate(189,173)"/>
<path d="M0 0 C0.66 0.33 1.32 0.66 2 1 C2 2.32 2 3.64 2 5 C2.66 5 3.32 5 4 5 C4.33 4.01 4.66 3.02 5 2 C7.33524782 4.25740623 9.18705073 6.2805761 11 9 C13.03264792 9.4402804 13.03264792 9.4402804 15.3125 9.3125 C16.07175781 9.30863281 16.83101562 9.30476562 17.61328125 9.30078125 C20.51822734 9.0366813 20.51822734 9.0366813 25 7 C25 12.28 25 17.56 25 23 C20.38 23 15.76 23 11 23 C10.01 25.475 10.01 25.475 9 28 C6.013202 31.34521376 2.46826529 31.71853323 -1.81640625 32.0703125 C-4.92689918 31.97015351 -6.62386062 30.95682067 -9 29 C-9.8353125 28.3503125 -9.8353125 28.3503125 -10.6875 27.6875 C-14.1568514 23.22690534 -14.43126453 17.99016322 -14.32421875 12.5390625 C-13.8172433 8.56877283 -12.36289605 5.22428625 -10 2 C-6.33134759 -0.44576827 -4.32799657 -0.23607254 0 0 Z " fill="#5640D4" transform="translate(128,183)"/>
<path d="M0 0 C3.55655534 2.32876557 5.97109829 4.20078807 8.34765625 7.765625 C8.47265625 10.453125 8.47265625 10.453125 8.34765625 12.765625 C6.74497805 12.87387343 5.14019877 12.95133145 3.53515625 13.015625 C2.64183594 13.06203125 1.74851562 13.1084375 0.828125 13.15625 C-1.65234375 12.765625 -1.65234375 12.765625 -3.26171875 10.78125 C-3.720625 10.11609375 -4.17953125 9.4509375 -4.65234375 8.765625 C-8.47095496 8.21019064 -10.70602184 8.23180238 -14.08984375 10.140625 C-16.51743015 14.21897015 -16.40466194 18.14424181 -15.65234375 22.765625 C-14.23189794 25.52171795 -14.23189794 25.52171795 -11.65234375 26.765625 C-8.69542666 27.51577695 -8.69542666 27.51577695 -5.65234375 26.765625 C-4.90984375 25.940625 -4.16734375 25.115625 -3.40234375 24.265625 C-0.23335178 21.38472321 0.54877605 21.42421234 4.66015625 21.453125 C6.22408449 21.53303374 7.78763197 21.6293122 9.34765625 21.765625 C8.77862456 25.74884682 7.75674668 28.52581373 5.34765625 31.765625 C-0.91690061 36.46404265 -5.96684834 37.58541118 -13.65234375 36.765625 C-18.9487279 35.10542963 -22.69646137 32.54051192 -25.65234375 27.765625 C-28.03886563 22.63460295 -28.48487612 17.32728453 -27.65234375 11.765625 C-25.3985671 6.11667409 -22.00982751 2.67730096 -16.65234375 -0.234375 C-11.16990655 -2.06185407 -5.32403763 -2.47775536 0 0 Z " fill="#F1F6FA" transform="translate(293.65234375,188.234375)"/>
<path d="M0 0 C-0.33 0.99 -0.66 1.98 -1 3 C0.32 3.99 1.64 4.98 3 6 C2.67 7.32 2.34 8.64 2 10 C2.99 10.66 3.98 11.32 5 12 C5 10.68 5 9.36 5 8 C5.66 8 6.32 8 7 8 C7.495 9.98 7.495 9.98 8 12 C9.32 12 10.64 12 12 12 C11.67 12.99 11.34 13.98 11 15 C11 15.33 11 15.66 11 16 C12.43640171 16.19573608 13.87419504 16.38127816 15.3125 16.5625 C16.11300781 16.66691406 16.91351563 16.77132812 17.73828125 16.87890625 C20.16817116 17.14755178 20.16817116 17.14755178 23 16 C23.66 16.33 24.32 16.66 25 17 C25 18.32 25 19.64 25 21 C26.41977909 23.22743787 26.41977909 23.22743787 28 25 C28.680625 24.855625 29.36125 24.71125 30.0625 24.5625 C33.36273082 23.93054091 36.67144426 23.45686059 40 23 C40.66 20.69 41.32 18.38 42 16 C43.485 16.495 43.485 16.495 45 17 C45.495 16.505 45.495 16.505 46 16 C48.33333333 16 50.66666667 16 53 16 C53.33 15.67 53.66 15.34 54 15 C53.01 14.34 52.02 13.68 51 13 C52 12 52 12 54.5625 11.9375 C55.366875 11.958125 56.17125 11.97875 57 12 C57.495 13.485 57.495 13.485 58 15 C57.67 15.66 57.34 16.32 57 17 C57.928125 16.938125 58.85625 16.87625 59.8125 16.8125 C63 17 63 17 64.6875 18.4375 C65.120625 18.953125 65.55375 19.46875 66 20 C67.485 20.495 67.485 20.495 69 21 C69.495 23.475 69.495 23.475 70 26 C69.40574219 25.566875 68.81148438 25.13375 68.19921875 24.6875 C61.73574384 20.34500986 56.76142997 18.67544459 49 20 C44.14742243 21.33693464 40.95602683 23.54601326 38 27.625 C35.01179029 33.05627305 35.17625682 38.34031656 36.51171875 44.2734375 C38.30448098 49.84861714 41.11969578 52.35411187 46.1875 55.25 C51.77814139 56.7408377 57.08290135 56.8016958 62.4375 54.5625 C63.283125 54.046875 64.12875 53.53125 65 53 C65.99 52.67 66.98 52.34 68 52 C69.13545562 49.70465742 69.13545562 49.70465742 70 47 C70.66666667 45.33333333 71.33333333 43.66666667 72 42 C72.66 42 73.32 42 74 42 C74.02712066 43.43739513 74.04645067 44.87493863 74.0625 46.3125 C74.07410156 47.11300781 74.08570313 47.91351563 74.09765625 48.73828125 C74 51 74 51 73 54 C72.34 54 71.68 54 71 54 C71 53.01 71 52.02 71 51 C70.34 51 69.68 51 69 51 C69 52.32 69 53.64 69 55 C65 57 61 59 57 61 C57 61.66 57 62.32 57 63 C55.56068883 62.54738642 54.12361001 62.08767021 52.6875 61.625 C51.88699219 61.36976563 51.08648437 61.11453125 50.26171875 60.8515625 C48 60 48 60 45 58 C45 57.34 45 56.68 45 56 C42.03 55.34 39.06 54.68 36 54 C35.90203125 53.30132812 35.8040625 52.60265625 35.703125 51.8828125 C35.55359375 50.97273438 35.4040625 50.06265625 35.25 49.125 C35.04117188 47.76761719 35.04117188 47.76761719 34.828125 46.3828125 C34.22016157 43.83785757 34.22016157 43.83785757 31.921875 42.6796875 C31.28765625 42.45539063 30.6534375 42.23109375 30 42 C30.33 42.99 30.66 43.98 31 45 C30.01 45.495 30.01 45.495 29 46 C29 45.34 29 44.68 29 44 C27.37399059 44.0870005 25.74910322 44.1951781 24.125 44.3125 C23.22007812 44.37050781 22.31515625 44.42851562 21.3828125 44.48828125 C18.63778399 44.7882039 18.63778399 44.7882039 17 48 C13.6208634 48.70643971 10.39292969 48.59649893 7 48 C4.375 45.6875 4.375 45.6875 3 43 C3 42.01 3 41.02 3 40 C11.58 40 20.16 40 29 40 C28.09286701 29.02791939 28.09286701 29.02791939 24.8125 25 C23.884375 24.34 22.95625 23.68 22 23 C21.05125 22.278125 20.1025 21.55625 19.125 20.8125 C13.47195848 17.68878355 6.33121939 17.61926985 0 17 C-0.04898438 16.21753906 -0.09796875 15.43507812 -0.1484375 14.62890625 C-0.22320312 13.61699219 -0.29796875 12.60507813 -0.375 11.5625 C-0.47941406 10.04849609 -0.47941406 10.04849609 -0.5859375 8.50390625 C-0.79089844 7.26447266 -0.79089844 7.26447266 -1 6 C-4.27315509 4.36342246 -7.90622231 4.7569193 -11.5078125 4.68359375 C-12.34843231 4.66281265 -13.18905212 4.64203156 -14.05514526 4.62062073 C-16.74501235 4.55514561 -19.43497843 4.4962498 -22.125 4.4375 C-23.94662489 4.39431284 -25.76823971 4.35069848 -27.58984375 4.30664062 C-32.05979394 4.19946632 -36.52984386 4.09819315 -41 4 C-37.28372332 1.60160999 -34.16631307 1.84564291 -29.828125 2.0234375 C-29.1457074 2.04846344 -28.46328979 2.07348938 -27.76019287 2.09927368 C-25.58960017 2.18117053 -23.41995927 2.27787353 -21.25 2.375 C-19.77477793 2.43327079 -18.29951728 2.49057339 -16.82421875 2.546875 C-13.21563108 2.68670221 -9.60774764 2.83981043 -6 3 C-5.67 2.34 -5.34 1.68 -5 1 C-3 0 -3 0 0 0 Z M6 12 C5.67 12.66 5.34 13.32 5 14 C5.66 14.66 6.32 15.32 7 16 C7.33 14.68 7.66 13.36 8 12 C7.34 12 6.68 12 6 12 Z M69 19 C69.99 19.495 69.99 19.495 71 20 C70.01 20.495 70.01 20.495 69 21 C69 20.34 69 19.68 69 19 Z " fill="#405FD0" transform="translate(231,168)"/>
<path d="M0 0 C3.63 0 7.26 0 11 0 C11 13.86 11 27.72 11 42 C18.59 42 26.18 42 34 42 C34 44.97 34 47.94 34 51 C29.80084693 51.09907258 25.60231748 51.17156173 21.40234375 51.21972656 C19.97448879 51.23980982 18.54671575 51.26708252 17.11914062 51.30175781 C15.06359632 51.35042669 13.00914145 51.37299967 10.953125 51.390625 C9.09929199 51.4220459 9.09929199 51.4220459 7.20800781 51.45410156 C4 51 4 51 1.58984375 49.64257812 C-0.96363967 45.3982746 -0.49010395 41.1824065 -0.390625 36.328125 C-0.38496521 35.29057068 -0.37930542 34.25301636 -0.37347412 33.184021 C-0.35109491 29.87221008 -0.30089419 26.56148356 -0.25 23.25 C-0.22993706 21.00392188 -0.21168594 18.75782679 -0.1953125 16.51171875 C-0.1512248 11.00739508 -0.08218523 5.50388135 0 0 Z " fill="#F7F8FC" transform="translate(155,173)"/>
<path d="M0 0 C3.3 0 6.6 0 10 0 C10 6.93 10 13.86 10 21 C9.34 21 8.68 21 8 21 C8 21.99 8 22.98 8 24 C8.66 24.33 9.32 24.66 10 25 C11.1003155 28.04572087 11.05481638 30.7789015 10.87890625 33.984375 C10.83056641 34.91894531 10.78222656 35.85351562 10.73242188 36.81640625 C10.67634766 37.78449219 10.62027344 38.75257813 10.5625 39.75 C10.51029297 40.73355469 10.45808594 41.71710938 10.40429688 42.73046875 C10.27488833 45.15393783 10.13815273 47.57701367 10 50 C6.7 50 3.4 50 0 50 C0 33.5 0 17 0 0 Z " fill="#FEFBFD" transform="translate(56,174)"/>
<path d="M0 0 C0.66 0.33 1.32 0.66 2 1 C1.34 1.66 0.68 2.32 0 3 C0.16417032 6.56592619 0.16417032 6.56592619 1 10 C1.66 10.33 2.32 10.66 3 11 C3.12375 10.360625 3.2475 9.72125 3.375 9.0625 C3.58125 8.381875 3.7875 7.70125 4 7 C7.19544224 5.40227888 10.53169582 5.49277765 14 6 C16.5 7.8125 16.5 7.8125 18 10 C18 10.99 18 11.98 18 13 C15.06152347 13.107834 12.12698849 13.18721916 9.1875 13.25 C7.93743164 13.30027344 7.93743164 13.30027344 6.66210938 13.3515625 C4.37379889 13.38832251 2.25678739 13.38495793 0 13 C-2.07421875 10.984375 -2.07421875 10.984375 -3 9 C-5.45622327 11.55856591 -5.99007552 12.90737156 -6.375 16.5 C-5.98940674 20.09887044 -5.63139589 21.56352232 -3 24 C-2.01 24 -1.02 24 0 24 C0 23.01 0 22.02 0 21 C0.66 20.34 1.32 19.68 2 19 C2.474375 19.969375 2.94875 20.93875 3.4375 21.9375 C4.70193947 24.80477437 4.70193947 24.80477437 6 26 C8.29615554 26.23819228 8.29615554 26.23819228 10.9375 26.25 C11.83339844 26.27578125 12.72929687 26.3015625 13.65234375 26.328125 C14.81443359 26.16570312 14.81443359 26.16570312 16 26 C16.66 25.01 17.32 24.02 18 23 C20.3828125 22.70703125 20.3828125 22.70703125 23.125 22.8125 C24.49011719 22.85310547 24.49011719 22.85310547 25.8828125 22.89453125 C26.58148438 22.92933594 27.28015625 22.96414062 28 23 C27.01603886 27.18405096 25.97952598 30.49711664 22.41015625 33.20703125 C16.83249358 36.43500372 11.32503268 37.02343823 5 36 C-0.32714607 34.20321683 -3.2679382 31.15847554 -6 26.3125 C-8.24391416 21.17592099 -9.14682474 16.53546115 -8 11 C-6.05944349 6.65403884 -3.41939991 3.27901399 0 0 Z " fill="#ECF1FB" transform="translate(232,189)"/>
<path d="M0 0 C0.99 0.66 1.98 1.32 3 2 C4.9896995 2.39013716 6.99019869 2.73202649 9 3 C9 2.01 9 1.02 9 0 C13 0 13 0 15.6875 2.3125 C18 5 18 5 19 8 C18.67 8.33 18.34 8.66 18 9 C17.92741054 11.18639453 17.91626217 13.37500389 17.9375 15.5625 C17.94652344 16.76003906 17.95554687 17.95757812 17.96484375 19.19140625 C17.97644531 20.11824219 17.98804687 21.04507813 18 22 C19.485 22.2475 19.485 22.2475 21 22.5 C21.8353125 22.63921875 21.8353125 22.63921875 22.6875 22.78125 C26.12937799 23.10683305 29.54332402 23.02880563 33 23 C32.96447021 22.43490723 32.92894043 21.86981445 32.89233398 21.28759766 C32.73498198 18.73371428 32.58613992 16.1794046 32.4375 13.625 C32.35338867 12.29082031 32.35338867 12.29082031 32.26757812 10.9296875 C32.21923828 10.07890625 32.17089844 9.228125 32.12109375 8.3515625 C32.0739624 7.56604004 32.02683105 6.78051758 31.97827148 5.97119141 C32 4 32 4 33 2 C32.01 2.33 31.02 2.66 30 3 C30 2.34 30 1.68 30 1 C31.32 0.67 32.64 0.34 34 0 C34.495 0.99 34.495 0.99 35 2 C37.57951874 2.69093896 37.57951874 2.69093896 40.5625 3.125 C41.57441406 3.29257813 42.58632812 3.46015625 43.62890625 3.6328125 C44.41136719 3.75398437 45.19382813 3.87515625 46 4 C46 4.33 46 4.66 46 5 C42.37 5 38.74 5 35 5 C35 11.6 35 18.2 35 25 C28.4 25 21.8 25 15 25 C15 18.4 15 11.8 15 5 C11.04 5 7.08 5 3 5 C3.33 21.83 3.66 38.66 4 56 C6.97 56.33 9.94 56.66 13 57 C12.67 57.99 12.34 58.98 12 60 C4.74131274 60.48391248 4.74131274 60.48391248 1.75 58.53125 C-0.81164964 54.82600677 -0.43923494 51.63879488 -0.25 47.25 C-0.23195312 46.45722656 -0.21390625 45.66445312 -0.1953125 44.84765625 C-0.14833082 42.89791652 -0.07659044 40.94880122 0 39 C-0.66 39 -1.32 39 -2 39 C-2.05787784 35.37506666 -2.0935542 31.75025143 -2.125 28.125 C-2.14175781 27.09246094 -2.15851562 26.05992187 -2.17578125 24.99609375 C-2.18222656 24.00996094 -2.18867187 23.02382812 -2.1953125 22.0078125 C-2.20578613 21.09660645 -2.21625977 20.18540039 -2.22705078 19.24658203 C-2 17 -2 17 0 15 C0.24281402 12.85709529 0.24281402 12.85709529 0.125 10.5 C0.10695312 9.7059375 0.08890625 8.911875 0.0703125 8.09375 C0.04710937 7.4028125 0.02390625 6.711875 0 6 C0 5.34 0 4.68 0 4 C-0.66 4 -1.32 4 -2 4 C-1 1 -1 1 0 0 Z " fill="#6239BA" transform="translate(52,168)"/>
<path d="M0 0 C2.5 0.125 2.5 0.125 3.5 1.125 C3.73678716 3.81735776 3.92198025 6.48998156 4.0625 9.1875 C4.10568359 9.94611328 4.14886719 10.70472656 4.19335938 11.48632812 C4.29973633 13.36565438 4.40039934 15.24530244 4.5 17.125 C8.955 18.115 8.955 18.115 13.5 19.125 C13.5 19.455 13.5 19.785 13.5 20.125 C11.85 20.125 10.2 20.125 8.5 20.125 C8.37625 21.053125 8.37625 21.053125 8.25 22 C7.5 24.125 7.5 24.125 3.5 26.125 C3.5 33.385 3.5 40.645 3.5 48.125 C1.19 48.125 -1.12 48.125 -3.5 48.125 C-3.52526945 41.4497966 -3.54283268 34.77460543 -3.55493164 28.09936523 C-3.55997325 25.82657409 -3.56680637 23.5537862 -3.57543945 21.28100586 C-3.58751261 18.02196449 -3.59322987 14.76296583 -3.59765625 11.50390625 C-3.60281754 10.48099991 -3.60797882 9.45809357 -3.61329651 8.40419006 C-3.61337204 7.46329025 -3.61344757 6.52239044 -3.61352539 5.55297852 C-3.615746 4.72024918 -3.61796661 3.88751984 -3.62025452 3.02955627 C-3.43419069 0.08273116 -2.96067449 0.14803372 0 0 Z " fill="#FBFDFD" transform="translate(313.5,174.875)"/>
<path d="M0 0 C0.66 0 1.32 0 2 0 C2.33 0.66 2.66 1.32 3 2 C3.99 2 4.98 2 6 2 C6.86625 3.2065625 6.86625 3.2065625 7.75 4.4375 C9.86647953 7.36019679 9.86647953 7.36019679 13.75 7.8125 C14.8225 7.874375 15.895 7.93625 17 8 C18.20628008 5.66785852 19.1654738 3.50357861 20 1 C20.53625 1.350625 21.0725 1.70125 21.625 2.0625 C26.45546289 3.96926167 31.32390135 1.67003523 36 0 C36 0.66 36 1.32 36 2 C37.65 1.67 39.3 1.34 41 1 C41.495 1.99 41.495 1.99 42 3 C44.35599235 3.46751788 44.35599235 3.46751788 47.0625 3.625 C48.44115234 3.73714844 48.44115234 3.73714844 49.84765625 3.8515625 C50.55792969 3.90054688 51.26820313 3.94953125 52 4 C51.979375 4.76699219 51.95875 5.53398437 51.9375 6.32421875 C52.00703424 9.30115328 52.77079637 11.31111707 54 14 C53.31164062 13.38511719 53.31164062 13.38511719 52.609375 12.7578125 C51.68898438 11.94957031 51.68898438 11.94957031 50.75 11.125 C50.14671875 10.59132812 49.5434375 10.05765625 48.921875 9.5078125 C42.42445388 4.41024227 33.90548418 5.0904846 26 6 C19.31485665 7.91699162 16.3879748 12.85207787 13.12890625 18.6953125 C11.90341339 21.06754284 11.90341339 21.06754284 11 24 C10.34 24 9.68 24 9 24 C9 25.65 9 27.3 9 29 C8.34 29 7.68 29 7 29 C6.67 37.91 6.34 46.82 6 56 C5.67 56 5.34 56 5 56 C5 38.84 5 21.68 5 4 C3.02 4 1.04 4 -1 4 C-0.67 2.68 -0.34 1.36 0 0 Z " fill="#6851CE" transform="translate(93,168)"/>
<path d="M0 0 C13.53 0 27.06 0 41 0 C41 3.3 41 6.6 41 10 C36.05 10 31.1 10 26 10 C29.20380017 7.86413322 30.01939967 7.76867825 33.6875 7.875 C34.89986328 7.90207031 34.89986328 7.90207031 36.13671875 7.9296875 C37.05904297 7.96449219 37.05904297 7.96449219 38 8 C37.505 5.525 37.505 5.525 37 3 C31.72 2.67 26.44 2.34 21 2 C20.67 3.65 20.34 5.3 20 7 C19 9 19 9 17.421875 9.62109375 C14.03082655 10.15162875 10.67142682 10.10454022 7.25 10.0625 C6.55261719 10.05798828 5.85523438 10.05347656 5.13671875 10.04882812 C3.42444197 10.0371002 1.71220967 10.01916653 0 10 C0 6.7 0 3.4 0 0 Z " fill="#E9EEFC" transform="translate(189,173)"/>
<path d="M0 0 C0.66 0.99 1.32 1.98 2 3 C2.53020752 3.76852295 3.06041504 4.5370459 3.60668945 5.32885742 C5.21214226 8.40670203 5.34830019 10.28928842 5.29296875 13.73828125 C5.28330078 14.80498047 5.27363281 15.87167969 5.26367188 16.97070312 C5.23853516 18.07349609 5.21339844 19.17628906 5.1875 20.3125 C5.17396484 21.43462891 5.16042969 22.55675781 5.14648438 23.71289062 C5.1112138 26.47575229 5.06192235 29.23762829 5 32 C2.03 32 -0.94 32 -4 32 C-4.02505615 31.34926514 -4.0501123 30.69853027 -4.07592773 30.02807617 C-4.19193702 27.08101954 -4.31464115 24.1342787 -4.4375 21.1875 C-4.47681641 20.16333984 -4.51613281 19.13917969 -4.55664062 18.08398438 C-4.59853516 17.10107422 -4.64042969 16.11816406 -4.68359375 15.10546875 C-4.73858032 13.74651489 -4.73858032 13.74651489 -4.79467773 12.36010742 C-4.9208205 9.84951218 -4.9208205 9.84951218 -6 7 C-5.01 6.67 -4.02 6.34 -3 6 C-1.29144978 2.99992729 -1.29144978 2.99992729 0 0 Z " fill="#F7FDFD" transform="translate(338,192)"/>
<path d="M0 0 C3.7230655 0.62051092 4.68920435 1.56267284 7 4.5 C7.45410156 7.24902344 7.45410156 7.24902344 7.390625 10.359375 C7.37773437 11.47441406 7.36484375 12.58945313 7.3515625 13.73828125 C7.31804687 14.89714844 7.28453125 16.05601562 7.25 17.25 C7.23195313 18.42433594 7.21390625 19.59867188 7.1953125 20.80859375 C7.1481912 23.7065534 7.08241305 26.60286418 7 29.5 C6.34 29.5 5.68 29.5 5 29.5 C5 23.89 5 18.28 5 12.5 C4.01 12.83 3.02 13.16 2 13.5 C1.34 13.17 0.68 12.84 0 12.5 C0 11.84 0 11.18 0 10.5 C-0.99 10.995 -0.99 10.995 -2 11.5 C-3.15570704 14.96712111 -3.32835293 18.0414956 -3.5625 21.6875 C-3.64628906 22.95980469 -3.73007812 24.23210937 -3.81640625 25.54296875 C-3.87699219 26.51878906 -3.93757813 27.49460938 -4 28.5 C-4.99 28.5 -5.98 28.5 -7 28.5 C-7.11618764 24.58358289 -7.18724654 20.66760899 -7.25 16.75 C-7.28351563 15.63882813 -7.31703125 14.52765625 -7.3515625 13.3828125 C-7.36445313 12.31289062 -7.37734375 11.24296875 -7.390625 10.140625 C-7.41157227 9.15610352 -7.43251953 8.17158203 -7.45410156 7.15722656 C-6.68819479 2.67543662 -4.39844161 0.7330736 0 0 Z " fill="#4471D0" transform="translate(326,195.5)"/>
<path d="M0 0 C0.99 0.66 1.98 1.32 3 2 C4.9896995 2.39013716 6.99019869 2.73202649 9 3 C9 2.01 9 1.02 9 0 C13 0 13 0 15.6875 2.3125 C18 5 18 5 19 8 C18.67 8.33 18.34 8.66 18 9 C17.92741054 11.18639453 17.91626217 13.37500389 17.9375 15.5625 C17.94652344 16.76003906 17.95554687 17.95757812 17.96484375 19.19140625 C17.97644531 20.11824219 17.98804687 21.04507813 18 22 C19.485 22.2475 19.485 22.2475 21 22.5 C21.8353125 22.63921875 21.8353125 22.63921875 22.6875 22.78125 C26.12937799 23.10683305 29.54332402 23.02880563 33 23 C32.96447021 22.43490723 32.92894043 21.86981445 32.89233398 21.28759766 C32.73498198 18.73371428 32.58613992 16.1794046 32.4375 13.625 C32.35338867 12.29082031 32.35338867 12.29082031 32.26757812 10.9296875 C32.21923828 10.07890625 32.17089844 9.228125 32.12109375 8.3515625 C32.0739624 7.56604004 32.02683105 6.78051758 31.97827148 5.97119141 C32 4 32 4 33 2 C32.01 2.33 31.02 2.66 30 3 C30 2.34 30 1.68 30 1 C31.32 0.67 32.64 0.34 34 0 C34.495 0.99 34.495 0.99 35 2 C37.57951874 2.69093896 37.57951874 2.69093896 40.5625 3.125 C41.57441406 3.29257813 42.58632812 3.46015625 43.62890625 3.6328125 C44.41136719 3.75398437 45.19382813 3.87515625 46 4 C46 4.33 46 4.66 46 5 C42.37 5 38.74 5 35 5 C35 11.6 35 18.2 35 25 C28.4 25 21.8 25 15 25 C15 18.4 15 11.8 15 5 C11.04 5 7.08 5 3 5 C3 5.66 3 6.32 3 7 C2.01 7.33 1.02 7.66 0 8 C0 6.68 0 5.36 0 4 C-0.66 4 -1.32 4 -2 4 C-1 1 -1 1 0 0 Z " fill="#6145BD" transform="translate(52,168)"/>
<path d="M0 0 C3.41464261 1.55431812 6.31097268 3.37484506 9 6 C9.33 6.99 9.66 7.98 10 9 C8.68 8.67 7.36 8.34 6 8 C6 7.34 6 6.68 6 6 C5.34 6 4.68 6 4 6 C3.67 8.97 3.34 11.94 3 15 C0 11.25 0 11.25 0 9 C-3.96 9 -7.92 9 -12 9 C-12.33 10.32 -12.66 11.64 -13 13 C-13.99 12.67 -14.98 12.34 -16 12 C-17.05519069 7.86040576 -17.48014707 5.83581156 -15.3125 2.0625 C-10.2852718 -1.06766095 -5.76077824 -1.04873839 0 0 Z " fill="#F4F8FB" transform="translate(248,187)"/>
<path d="M0 0 C1.3921875 0.3403125 1.3921875 0.3403125 2.8125 0.6875 C2.8125 2.3375 2.8125 3.9875 2.8125 5.6875 C3.1425 5.6875 3.4725 5.6875 3.8125 5.6875 C4.1425 3.7075 4.4725 1.7275 4.8125 -0.3125 C5.1425 -0.3125 5.4725 -0.3125 5.8125 -0.3125 C5.8125 11.8975 5.8125 24.1075 5.8125 36.6875 C4.8225 36.6875 3.8325 36.6875 2.8125 36.6875 C3.1425 32.7275 3.4725 28.7675 3.8125 24.6875 C2.1625 24.3575 0.5125 24.0275 -1.1875 23.6875 C-1.1875 22.6975 -1.1875 21.7075 -1.1875 20.6875 C-2.8375 21.0175 -4.4875 21.3475 -6.1875 21.6875 C-5.8575 20.3675 -5.5275 19.0475 -5.1875 17.6875 C-1.2275 17.1925 -1.2275 17.1925 2.8125 16.6875 C2.4825 14.3775 2.1525 12.0675 1.8125 9.6875 C1.1525 9.6875 0.4925 9.6875 -0.1875 9.6875 C-0.5175 7.7075 -0.8475 5.7275 -1.1875 3.6875 C-2.8375 3.3575 -4.4875 3.0275 -6.1875 2.6875 C-4.14987265 -0.14253799 -3.59070275 -0.35202968 0 0 Z M-1.1875 1.6875 C-0.8575 2.3475 -0.5275 3.0075 -0.1875 3.6875 C0.1425 3.0275 0.4725 2.3675 0.8125 1.6875 C0.1525 1.6875 -0.5075 1.6875 -1.1875 1.6875 Z M-1.1875 33.6875 C-0.5275 33.6875 0.1325 33.6875 0.8125 33.6875 C0.8125 34.6775 0.8125 35.6675 0.8125 36.6875 C1.4725 37.0175 2.1325 37.3475 2.8125 37.6875 C1.4925 38.0175 0.1725 38.3475 -1.1875 38.6875 C-1.1875 37.0375 -1.1875 35.3875 -1.1875 33.6875 Z " fill="#2F64E8" transform="translate(301.1875,185.3125)"/>
<path d="M0 0 C1.60379341 -0.05416188 3.20811406 -0.09286638 4.8125 -0.125 C5.70582031 -0.14820313 6.59914063 -0.17140625 7.51953125 -0.1953125 C10 0 10 0 13 2 C13.6875 4.125 13.6875 4.125 14 6 C16.31 6.33 18.62 6.66 21 7 C21 9.31 21 11.62 21 14 C22.32 14.33 23.64 14.66 25 15 C24.68991116 16.60463449 24.37683713 18.20869231 24.0625 19.8125 C23.88847656 20.70582031 23.71445312 21.59914062 23.53515625 22.51953125 C23 25 23 25 22 28 C22.66 28.33 23.32 28.66 24 29 C23.67 29.66 23.34 30.32 23 31 C22.7677354 33.71262116 22.58063765 36.40773126 22.4375 39.125 C22.39431641 39.87910156 22.35113281 40.63320312 22.30664062 41.41015625 C22.2005168 43.27321888 22.09974999 45.13658524 22 47 C21.67 47 21.34 47 21 47 C20.98541748 46.21351074 20.97083496 45.42702148 20.95581055 44.61669922 C20.88110637 41.03565042 20.78451793 37.45551089 20.6875 33.875 C20.66494141 32.6375 20.64238281 31.4 20.61914062 30.125 C20.5659668 28.32675781 20.5659668 28.32675781 20.51171875 26.4921875 C20.47244263 24.84259033 20.47244263 24.84259033 20.43237305 23.15966797 C19.9433067 19.58570035 18.74188561 17.1365701 17 14 C16.731875 13.2575 16.46375 12.515 16.1875 11.75 C14.34013448 9.0275666 12.13298703 8.85445101 9 8 C7.37236433 7.46630543 5.74742692 6.92432565 4.125 6.375 C3.34382813 6.11460937 2.56265625 5.85421875 1.7578125 5.5859375 C1.17773438 5.39257812 0.59765625 5.19921875 0 5 C0 3.35 0 1.7 0 0 Z M24 27 C24.66 27 25.32 27 26 27 C25.67 27.66 25.34 28.32 25 29 C24.67 28.34 24.34 27.68 24 27 Z " fill="#2A6FF2" transform="translate(323,178)"/>
<path d="M0 0 C1.2065625 0.0309375 1.2065625 0.0309375 2.4375 0.0625 C2.7675 1.0525 3.0975 2.0425 3.4375 3.0625 C3.1075 3.7225 2.7775 4.3825 2.4375 5.0625 C3.8296875 4.9696875 3.8296875 4.9696875 5.25 4.875 C8.4375 5.0625 8.4375 5.0625 10.125 6.5 C10.558125 7.015625 10.99125 7.53125 11.4375 8.0625 C12.4275 8.3925 13.4175 8.7225 14.4375 9.0625 C14.9325 11.5375 14.9325 11.5375 15.4375 14.0625 C14.84324219 13.629375 14.24898438 13.19625 13.63671875 12.75 C7.17938819 8.41163794 2.19372407 6.7272219 -5.5625 8.0625 C-11.27236693 9.72302252 -14.419306 12.45103882 -17.359375 17.57421875 C-18.91719285 19.50125966 -20.19626533 19.54789205 -22.5625 20.0625 C-22.8925 20.7225 -23.2225 21.3825 -23.5625 22.0625 C-25.65600689 18.6605513 -25.74192163 16.00977588 -25.5625 12.0625 C-24.2425 12.0625 -22.9225 12.0625 -21.5625 12.0625 C-19.22615343 11.75098712 -16.89211443 11.42090222 -14.5625 11.0625 C-13.9025 8.7525 -13.2425 6.4425 -12.5625 4.0625 C-11.5725 4.3925 -10.5825 4.7225 -9.5625 5.0625 C-9.2325 4.7325 -8.9025 4.4025 -8.5625 4.0625 C-6.22916667 4.0625 -3.89583333 4.0625 -1.5625 4.0625 C-1.2325 3.7325 -0.9025 3.4025 -0.5625 3.0625 C-1.5525 2.4025 -2.5425 1.7425 -3.5625 1.0625 C-2.5625 0.0625 -2.5625 0.0625 0 0 Z M14.4375 7.0625 C15.4275 7.5575 15.4275 7.5575 16.4375 8.0625 C15.4475 8.5575 15.4475 8.5575 14.4375 9.0625 C14.4375 8.4025 14.4375 7.7425 14.4375 7.0625 Z " fill="#4266D8" transform="translate(285.5625,179.9375)"/>
<path d="M0 0 C-0.33 0.99 -0.66 1.98 -1 3 C0.32 3.99 1.64 4.98 3 6 C2.67 7.32 2.34 8.64 2 10 C2.99 10.66 3.98 11.32 5 12 C5 10.68 5 9.36 5 8 C5.66 8 6.32 8 7 8 C7.495 9.98 7.495 9.98 8 12 C9.32 12 10.64 12 12 12 C11.67 12.99 11.34 13.98 11 15 C11 15.33 11 15.66 11 16 C12.43640171 16.19573608 13.87419504 16.38127816 15.3125 16.5625 C16.11300781 16.66691406 16.91351563 16.77132812 17.73828125 16.87890625 C20.16817116 17.14755178 20.16817116 17.14755178 23 16 C23.66 16.33 24.32 16.66 25 17 C25 17.66 25 18.32 25 19 C16.49737031 19.36011137 8.38909618 18.2527717 0 17 C-0.04898438 16.21753906 -0.09796875 15.43507812 -0.1484375 14.62890625 C-0.22320312 13.61699219 -0.29796875 12.60507813 -0.375 11.5625 C-0.47941406 10.04849609 -0.47941406 10.04849609 -0.5859375 8.50390625 C-0.79089844 7.26447266 -0.79089844 7.26447266 -1 6 C-4.27315509 4.36342246 -7.90622231 4.7569193 -11.5078125 4.68359375 C-12.34843231 4.66281265 -13.18905212 4.64203156 -14.05514526 4.62062073 C-16.74501235 4.55514561 -19.43497843 4.4962498 -22.125 4.4375 C-23.94662489 4.39431284 -25.76823971 4.35069848 -27.58984375 4.30664062 C-32.05979394 4.19946632 -36.52984386 4.09819315 -41 4 C-37.28372332 1.60160999 -34.16631307 1.84564291 -29.828125 2.0234375 C-29.1457074 2.04846344 -28.46328979 2.07348938 -27.76019287 2.09927368 C-25.58960017 2.18117053 -23.41995927 2.27787353 -21.25 2.375 C-19.77477793 2.43327079 -18.29951728 2.49057339 -16.82421875 2.546875 C-13.21563108 2.68670221 -9.60774764 2.83981043 -6 3 C-5.67 2.34 -5.34 1.68 -5 1 C-3 0 -3 0 0 0 Z M6 12 C5.67 12.66 5.34 13.32 5 14 C5.66 14.66 6.32 15.32 7 16 C7.33 14.68 7.66 13.36 8 12 C7.34 12 6.68 12 6 12 Z " fill="#3E5EE0" transform="translate(231,168)"/>
<path d="M0 0 C0.33 0 0.66 0 1 0 C1 3.63 1 7.26 1 11 C5.95 11.33 10.9 11.66 16 12 C16 12.33 16 12.66 16 13 C15.03900391 13.03867188 15.03900391 13.03867188 14.05859375 13.078125 C7.9410516 13.4792753 4.0874978 14.57146888 -1 18 C-1.66 17.34 -2.32 16.68 -3 16 C-2.34 16 -1.68 16 -1 16 C-1 14.68 -1 13.36 -1 12 C-2.45792884 11.94600264 -3.91642712 11.90720823 -5.375 11.875 C-6.59316406 11.84019531 -6.59316406 11.84019531 -7.8359375 11.8046875 C-10.21342243 11.78629949 -10.21342243 11.78629949 -12 14 C-12.24556371 16.72000357 -12.37356486 19.34574257 -12.4140625 22.0703125 C-12.43342865 22.86654022 -12.4527948 23.66276794 -12.4727478 24.48312378 C-12.53260474 27.03030634 -12.57895279 29.57753395 -12.625 32.125 C-12.66317421 33.8502803 -12.70222561 35.57554143 -12.7421875 37.30078125 C-12.83831109 41.53369876 -12.92231908 45.76670549 -13 50 C-13.66 50 -14.32 50 -15 50 C-15 36.47 -15 22.94 -15 9 C-10.05 9 -5.1 9 0 9 C0 6.03 0 3.06 0 0 Z " fill="#4959C1" transform="translate(230,174)"/>
<path d="M0 0 C3.56568671 2.32144062 5.97722722 4.19435645 8.35546875 7.76171875 C8.48046875 10.44921875 8.48046875 10.44921875 8.35546875 12.76171875 C6.75279055 12.86996718 5.14801127 12.9474252 3.54296875 13.01171875 C2.64964844 13.058125 1.75632812 13.10453125 0.8359375 13.15234375 C-2.42818362 12.63830893 -2.75131564 11.33971448 -4.64453125 8.76171875 C-6.92342467 8.28003147 -6.92342467 8.28003147 -9.33203125 8.51171875 C-10.14027344 8.5478125 -10.94851563 8.58390625 -11.78125 8.62109375 C-12.39613281 8.6675 -13.01101563 8.71390625 -13.64453125 8.76171875 C-13.64453125 8.10171875 -13.64453125 7.44171875 -13.64453125 6.76171875 C-10.01453125 6.76171875 -6.38453125 6.76171875 -2.64453125 6.76171875 C-2.31453125 5.44171875 -1.98453125 4.12171875 -1.64453125 2.76171875 C-5.99309725 1.55159744 -10.15680034 1.15400519 -14.64453125 1.76171875 C-17.95312597 3.71628652 -17.95312597 3.71628652 -20.64453125 5.76171875 C-21.63453125 5.43171875 -22.62453125 5.10171875 -23.64453125 4.76171875 C-16.86358346 -1.05052221 -8.57587522 -4.01558707 0 0 Z " fill="#ECF7FC" transform="translate(293.64453125,188.23828125)"/>
<path d="M0 0 C1.32 0.33 2.64 0.66 4 1 C3.34 1.94875 2.68 2.8975 2 3.875 C-0.62693551 8.55452311 -0.88903473 12.75157566 0 18 C1.61095768 22.96830753 3.70889389 27.60289365 8.125 30.625 C14.42304063 33.56041062 22.42248761 32.42216484 29 31 C28.0211735 33.51475107 27.4459775 34.75292846 25.046875 36.08203125 C20.31679525 37.58632532 16.9366932 38.39240065 12 37 C11.67 35.68 11.34 34.36 11 33 C10.05125 33.020625 9.1025 33.04125 8.125 33.0625 C5 33 5 33 3 32 C3 31.01 3 30.02 3 29 C1.68 29 0.36 29 -1 29 C-0.979375 28.195625 -0.95875 27.39125 -0.9375 26.5625 C-0.70366379 24.06645115 -0.70366379 24.06645115 -2 23 C-2.08631874 21.65732587 -2.10706473 20.31025678 -2.09765625 18.96484375 C-2.09443359 18.15595703 -2.09121094 17.34707031 -2.08789062 16.51367188 C-2.07951172 15.66353516 -2.07113281 14.81339844 -2.0625 13.9375 C-2.05798828 13.08349609 -2.05347656 12.22949219 -2.04882812 11.34960938 C-2.03700373 9.23304337 -2.01906769 7.11651315 -2 5 C-1.34 5 -0.68 5 0 5 C0 3.35 0 1.7 0 0 Z " fill="#4556CB" transform="translate(225,192)"/>
<path d="M0 0 C6.6 0 13.2 0 20 0 C20.33 7.59 20.66 15.18 21 23 C20.01 22.67 19.02 22.34 18 22 C18 16.39 18 10.78 18 5 C16.35 5 14.7 5 13 5 C13 4.34 13 3.68 13 3 C8.42875535 3.32264152 8.42875535 3.32264152 4.3046875 5.09765625 C2.31777135 7.99474657 2.54785517 10.65771189 2.4375 14.125 C2.36006148 16.41999602 2.23080461 18.71532656 2 21 C1.34 21.33 0.68 21.66 0 22 C0 14.74 0 7.48 0 0 Z " fill="#6040B1" transform="translate(67,203)"/>
<path d="M0 0 C0.33 0 0.66 0 1 0 C1 4.29 1 8.58 1 13 C1.66 13 2.32 13 3 13 C3 11.35 3 9.7 3 8 C3.33 8 3.66 8 4 8 C4.06058594 9.0621875 4.12117188 10.124375 4.18359375 11.21875 C4.79270238 21.63715103 4.79270238 21.63715103 6 32 C6.804375 32.226875 7.60875 32.45375 8.4375 32.6875 C9.283125 33.120625 10.12875 33.55375 11 34 C11.8125 36.625 11.8125 36.625 12 39 C11.34 39 10.68 39 10 39 C10 38.01 10 37.02 10 36 C9.01 36 8.02 36 7 36 C6.67 36.66 6.34 37.32 6 38 C5.01 37.67 4.02 37.34 3 37 C3 35.35 3 33.7 3 32 C1.7778983 34.16515671 1.7778983 34.16515671 1.5625 37.5625 C1.376875 38.696875 1.19125 39.83125 1 41 C0.01 41.495 0.01 41.495 -1 42 C-0.67 28.14 -0.34 14.28 0 0 Z " fill="#5B3BC0" transform="translate(99,184)"/>
<path d="M0 0 C0.33 0 0.66 0 1 0 C1 17.16 1 34.32 1 52 C6.94 51.505 6.94 51.505 13 51 C11 55 11 55 9 55.8125 C7 56 7 56 5 55 C5 55.99 5 56.98 5 58 C3.125 57.75 3.125 57.75 1 57 C-1.00658087 53.90987369 -1.24860384 51.4254953 -1.24291992 47.78833008 C-1.24599655 46.75078079 -1.24907318 45.71323151 -1.25224304 44.64424133 C-1.24505753 43.53058701 -1.23787201 42.41693268 -1.23046875 41.26953125 C-1.23001053 40.12336838 -1.22955231 38.97720551 -1.2290802 37.79631042 C-1.22606092 35.37632205 -1.21818433 32.95633557 -1.20581055 30.53637695 C-1.18751967 26.81649966 -1.18530113 23.09687075 -1.18554688 19.37695312 C-1.18063298 17.02864366 -1.17480523 14.6803359 -1.16796875 12.33203125 C-1.16685593 11.21230423 -1.1657431 10.09257721 -1.16459656 8.93891907 C-1.15821671 7.91082626 -1.15183685 6.88273346 -1.14526367 5.82348633 C-1.14145187 4.91399734 -1.13764008 4.00450836 -1.13371277 3.06745911 C-1 1 -1 1 0 0 Z " fill="#5A85D2" transform="translate(308,173)"/>
<path d="M0 0 C1.8359375 1.5234375 1.8359375 1.5234375 3 3 C2.34 3 1.68 3 1 3 C1.33 4.32 1.66 5.64 2 7 C-1.96 6.67 -5.92 6.34 -10 6 C-10 6.66 -10 7.32 -10 8 C-10.99 8 -11.98 8 -13 8 C-13 8.99 -13 9.98 -13 11 C-13.66 11 -14.32 11 -15 11 C-15 11.99 -15 12.98 -15 14 C-15.66 14 -16.32 14 -17 14 C-17.33 12.35 -17.66 10.7 -18 9 C-18.66 9 -19.32 9 -20 9 C-20.33 7.68 -20.66 6.36 -21 5 C-20.278125 4.731875 -19.55625 4.46375 -18.8125 4.1875 C-15.99344328 3.13565836 -15.99344328 3.13565836 -13.875 1.375 C-9.47583733 -0.72894736 -4.79421004 -0.75698053 0 0 Z " fill="#F9FBF9" transform="translate(290,189)"/>
<path d="M0 0 C2.97 0 5.94 0 9 0 C7.77680564 4.89277745 6.64042993 7.8106883 2.5 10.8125 C-2.36679233 12.46373311 -6.90929578 12.2445712 -12 12 C-11.34 11.67 -10.68 11.34 -10 11 C-10.66 9.68 -11.32 8.36 -12 7 C-9.39230553 5.88241666 -7.13392748 5.01868756 -4.3125 4.625 C-3.549375 4.41875 -2.78625 4.2125 -2 4 C-1.34 2.68 -0.68 1.36 0 0 Z " fill="#F4F8FB" transform="translate(251,212)"/>
<path d="M0 0 C13.2 0 26.4 0 40 0 C40 0.33 40 0.66 40 1 C27.13 1 14.26 1 1 1 C1 4.3 1 7.6 1 11 C5.95 11 10.9 11 16 11 C16 24.53 16 38.06 16 52 C15.67 52 15.34 52 15 52 C15 39.13 15 26.26 15 13 C10.38 13.33 5.76 13.66 1 14 C0.34 13.67 -0.32 13.34 -1 13 C-2 9 -2 9 0 0 Z " fill="#5762C3" transform="translate(188,172)"/>
<path d="M0 0 C1.33998047 0.06960937 1.33998047 0.06960937 2.70703125 0.140625 C3.60808594 0.17671875 4.50914062 0.2128125 5.4375 0.25 C6.12457031 0.29640625 6.81164062 0.3428125 7.51953125 0.390625 C6.95049956 4.37384682 5.92862168 7.15081373 3.51953125 10.390625 C-1.28945942 13.997368 -4.6914763 15.53074179 -10.66796875 15.453125 C-12.01955078 15.43958984 -12.01955078 15.43958984 -13.3984375 15.42578125 C-14.08550781 15.41417969 -14.77257812 15.40257812 -15.48046875 15.390625 C-15.48046875 15.060625 -15.48046875 14.730625 -15.48046875 14.390625 C-14.8771875 14.35324219 -14.27390625 14.31585938 -13.65234375 14.27734375 C-7.44023815 13.87994583 -7.44023815 13.87994583 -2.48046875 10.390625 C-2.48046875 9.730625 -2.48046875 9.070625 -2.48046875 8.390625 C-6.11046875 8.060625 -9.74046875 7.730625 -13.48046875 7.390625 C-13.48046875 7.060625 -13.48046875 6.730625 -13.48046875 6.390625 C-11.49479167 6 -9.50911458 5.609375 -7.5234375 5.21875 C-5.30223393 4.53463875 -5.30223393 4.53463875 -4.04296875 2.328125 C-2.48046875 0.390625 -2.48046875 0.390625 0 0 Z " fill="#F1F6FB" transform="translate(295.48046875,209.609375)"/>
<path d="M0 0 C4.51075074 1.15990733 6.49645828 3.31701142 8.99609375 7.046875 C10.53678252 10.04432397 10.79507056 12.65281915 11 16 C7.7 16 4.4 16 1 16 C-0.98 12.535 -0.98 12.535 -3 9 C-2.01 9 -1.02 9 0 9 C0 6.03 0 3.06 0 0 Z " fill="#EEEDFA" transform="translate(138,175)"/>
<path d="M0 0 C0 3 0 3 -1.9375 5.625 C-4.48704723 9.79698637 -4.78669397 13.20061436 -5 18 C-4.67 18 -4.34 18 -4 18 C-3.67 19.98 -3.34 21.96 -3 24 C-1.68 23.34 -0.36 22.68 1 22 C0.814375 22.969375 0.62875 23.93875 0.4375 24.9375 C0.293125 25.948125 0.14875 26.95875 0 28 C1.58272601 29.58272601 3.38034003 29.34735747 5.5625 29.5625 C6.38878906 29.64628906 7.21507812 29.73007813 8.06640625 29.81640625 C9.02353516 29.90728516 9.02353516 29.90728516 10 30 C10 29.34 10 28.68 10 28 C10.99 28 11.98 28 13 28 C13 26.35 13 24.7 13 23 C16.28519475 21.90493508 18.73663415 21.90039392 22.1875 21.9375 C23.81751953 21.95103516 23.81751953 21.95103516 25.48046875 21.96484375 C26.31191406 21.97644531 27.14335937 21.98804688 28 22 C28 22.33 28 22.66 28 23 C24.7 23 21.4 23 18 23 C17.7525 23.763125 17.505 24.52625 17.25 25.3125 C15.79290602 28.44525205 15.06848449 29.42641821 12 31 C7.67539599 32.05280622 4.26438484 32.54973254 0.125 30.75 C-0.926875 29.88375 -0.926875 29.88375 -2 29 C-2.8353125 28.3503125 -2.8353125 28.3503125 -3.6875 27.6875 C-7.1568514 23.22690534 -7.43126453 17.99016322 -7.32421875 12.5390625 C-6.8172433 8.56877283 -5.36289605 5.22428625 -3 2 C-2.01 1.34 -1.02 0.68 0 0 Z " fill="#5F4CB8" transform="translate(121,183)"/>
<path d="M0 0 C0 0.99 0 1.98 0 3 C-1.65 3.33 -3.3 3.66 -5 4 C-4.05125 4.268125 -3.1025 4.53625 -2.125 4.8125 C1 6 1 6 3 9 C3.125 11.6875 3.125 11.6875 3 14 C2.34 14 1.68 14 1 14 C0.67 14.99 0.34 15.98 0 17 C-2.375 17.125 -2.375 17.125 -5 17 C-5.66 16.34 -6.32 15.68 -7 15 C-7 14.01 -7 13.02 -7 12 C-6.34 11.67 -5.68 11.34 -5 11 C-4.34786708 8.97536745 -4.34786708 8.97536745 -4 7 C-7.0745356 7.7763932 -7.0745356 7.7763932 -9 10 C-9.79953138 6.71303767 -10.09658936 5.28976808 -9 2 C-5.99208089 -0.04108797 -3.57804656 -0.19878036 0 0 Z " fill="#325EEA" transform="translate(288,197)"/>
<path d="M0 0 C0.33 0 0.66 0 1 0 C1.1676542 5.07182479 1.32820966 10.1438057 1.48217773 15.21606445 C1.53556166 16.94171197 1.59088821 18.66730052 1.64819336 20.39282227 C1.7302051 22.87242927 1.80523843 25.35216407 1.87890625 27.83203125 C1.90594131 28.60400345 1.93297638 29.37597565 1.96083069 30.17134094 C2.05128101 33.41429423 2.03489186 35.89532441 1 39 C1.65597168 38.98952637 2.31194336 38.97905273 2.98779297 38.96826172 C5.95015658 38.92677497 8.91245916 38.90069738 11.875 38.875 C12.90753906 38.85824219 13.94007813 38.84148437 15.00390625 38.82421875 C16.48310547 38.81455078 16.48310547 38.81455078 17.9921875 38.8046875 C19.35899658 38.78897705 19.35899658 38.78897705 20.75341797 38.77294922 C23 39 23 39 25 41 C25.85777833 44.21666874 26.13209409 46.4319954 25.375 49.6875 C23.68720569 52.52606315 21.92031997 53.53984001 19 55 C19 53.68 19 52.36 19 51 C20.32 51 21.64 51 23 51 C23 47.7 23 44.4 23 41 C15.41 41 7.82 41 0 41 C0 27.47 0 13.94 0 0 Z " fill="#544FB3" transform="translate(166,174)"/>
<path d="M0 0 C0.33 0 0.66 0 1 0 C1.02578125 0.90621094 1.0515625 1.81242188 1.078125 2.74609375 C1.43361994 10.38115545 2.28911308 16.30640019 6 23 C6.32355469 23.71671875 6.64710937 24.4334375 6.98046875 25.171875 C8.44411021 27.79633556 10.20860973 28.06953658 13 29 C13.56976563 29.34417969 14.13953125 29.68835938 14.7265625 30.04296875 C17.88046033 31.37064052 20.59151493 31.22721752 24 31.1875 C25.216875 31.18105469 26.43375 31.17460937 27.6875 31.16796875 C30.33063144 31.03394204 32.49345523 30.78329524 35 30 C34.34 31.32 33.68 32.64 33 34 C31.35 34 29.7 34 28 34 C28 34.99 28 35.98 28 37 C26.35 37 24.7 37 23 37 C23 36.34 23 35.68 23 35 C22.33613281 34.86722656 21.67226562 34.73445313 20.98828125 34.59765625 C16.65885417 33.73177083 12.32942708 32.86588542 8 32 C7.938125 31.05125 7.87625 30.1025 7.8125 29.125 C7.544375 28.09375 7.27625 27.0625 7 26 C6.195625 25.71125 5.39125 25.4225 4.5625 25.125 C2 24 2 24 0.6875 20.875 C-0.66529588 14.07309174 -0.15070126 6.89876871 0 0 Z " fill="#5B3CBA" transform="translate(103,192)"/>
<path d="M0 0 C0.66 0 1.32 0 2 0 C2.02712066 1.43739513 2.04645067 2.87493863 2.0625 4.3125 C2.07410156 5.11300781 2.08570313 5.91351563 2.09765625 6.73828125 C2 9 2 9 1 12 C0.34 12 -0.32 12 -1 12 C-1 11.01 -1 10.02 -1 9 C-1.66 9 -2.32 9 -3 9 C-3 10.32 -3 11.64 -3 13 C-9 16 -9 16 -15 19 C-15 19.66 -15 20.32 -15 21 C-16.48199902 20.55090939 -17.96055236 20.09043436 -19.4375 19.625 C-20.67306641 19.24214844 -20.67306641 19.24214844 -21.93359375 18.8515625 C-24 18 -24 18 -25 16 C-21.38476469 14.19238234 -17.14436548 14.18948104 -13.1640625 13.6953125 C-9.93826796 12.98643419 -8.48633785 12.07762478 -6 10 C-5.34 10 -4.68 10 -4 10 C-3.71125 9.278125 -3.4225 8.55625 -3.125 7.8125 C-2.08333333 5.20833333 -1.04166667 2.60416667 0 0 Z " fill="#3661CB" transform="translate(303,210)"/>
<path d="M0 0 C1.65 0 3.3 0 5 0 C6.99785435 4.1205746 7.17835515 7.45194365 7 12 C6.34 12 5.68 12 5 12 C4.67 11.01 4.34 10.02 4 9 C3.278125 9.680625 2.55625 10.36125 1.8125 11.0625 C-1 13 -1 13 -3.625 12.75 C-4.800625 12.37875 -4.800625 12.37875 -6 12 C-6.99 12 -7.98 12 -9 12 C-7.71744377 8.15233131 -5.70395995 6.94737832 -2.59375 4.5 C-0.73155509 2.98483163 -0.73155509 2.98483163 0 0 Z " fill="#5843C9" transform="translate(147,212)"/>
<path d="M0 0 C5.94 0.33 11.88 0.66 18 1 C17.67 2.65 17.34 4.3 17 6 C13.31469576 8.21782273 9.91090122 8.217822 5.6875 8.125 C4.61886719 8.10695312 3.55023438 8.08890625 2.44921875 8.0703125 C1.64097656 8.04710937 0.83273437 8.02390625 0 8 C0 5.36 0 2.72 0 0 Z " fill="#F9FBFC" transform="translate(277,216)"/>
<path d="M0 0 C2.31 0 4.62 0 7 0 C8.04449911 3.13349732 7.93423645 3.98968256 7 7 C5.68 7 4.36 7 3 7 C3 8.65 3 10.3 3 12 C2.34 12 1.68 12 1 12 C1 15.63 1 19.26 1 23 C0.34 23 -0.32 23 -1 23 C-1 21.02 -1 19.04 -1 17 C-1.33 17 -1.66 17 -2 17 C-2.22084624 10.90218999 -2.01167675 5.78357065 0 0 Z " fill="#3F56E3" transform="translate(222,185)"/>
<path d="M0 0 C1.65 0 3.3 0 5 0 C6.80411967 2.75924185 7.0127245 3.88972103 6.625 7.25 C6.41875 8.1575 6.2125 9.065 6 10 C5.01 10 4.02 10 3 10 C2.67 9.34 2.34 8.68 2 8 C1.01 8.495 1.01 8.495 0 9 C-1.15570704 12.46712111 -1.32835293 15.5414956 -1.5625 19.1875 C-1.64628906 20.45980469 -1.73007812 21.73210937 -1.81640625 23.04296875 C-1.87699219 24.01878906 -1.93757813 24.99460938 -2 26 C-2.33 26 -2.66 26 -3 26 C-3 18.08 -3 10.16 -3 2 C-2.01 2 -1.02 2 0 2 C0 1.34 0 0.68 0 0 Z " fill="#2967EA" transform="translate(324,198)"/>
<path d="M0 0 C2.5 1.8125 2.5 1.8125 4 4 C4 4.99 4 5.98 4 7 C-1.28 7 -6.56 7 -12 7 C-11.34 5.02 -10.68 3.04 -10 1 C-6.80455776 -0.59772112 -3.46830418 -0.50722235 0 0 Z " fill="#5A6CCE" transform="translate(246,195)"/>
<path d="M0 0 C0.66666667 2 1.33333333 4 2 6 C3.32 5.67 4.64 5.34 6 5 C5.67 6.65 5.34 8.3 5 10 C4.34 10 3.68 10 3 10 C3 10.99 3 11.98 3 13 C5.31 13.33 7.62 13.66 10 14 C10.33 13.34 10.66 12.68 11 12 C11.99 12 12.98 12 14 12 C12.25 15.875 12.25 15.875 10 17 C6.104797 17.5193604 4.45204612 17.29481269 1.125 15.125 C-1.81567428 10.800479 -1.63111853 7.09402814 -1 2 C-0.67 1.34 -0.34 0.68 0 0 Z " fill="#3D62D6" transform="translate(278,199)"/>
<path d="M0 0 C1.2065625 0.0309375 1.2065625 0.0309375 2.4375 0.0625 C2.7675 1.0525 3.0975 2.0425 3.4375 3.0625 C3.1075 3.7225 2.7775 4.3825 2.4375 5.0625 C3.365625 5.000625 4.29375 4.93875 5.25 4.875 C8.4375 5.0625 8.4375 5.0625 10.125 6.5 C10.558125 7.015625 10.99125 7.53125 11.4375 8.0625 C12.4275 8.3925 13.4175 8.7225 14.4375 9.0625 C14.7675 10.7125 15.0975 12.3625 15.4375 14.0625 C14.54611328 13.4128125 14.54611328 13.4128125 13.63671875 12.75 C7.11327419 8.36721921 2.24527724 7.07717348 -5.5625 8.0625 C-6.90269192 8.36708907 -8.23951296 8.6902176 -9.5625 9.0625 C-9.2325 8.0725 -8.9025 7.0825 -8.5625 6.0625 C-6.25220915 5.31990651 -3.916748 4.651062 -1.5625 4.0625 C-1.2325 3.7325 -0.9025 3.4025 -0.5625 3.0625 C-1.5525 2.4025 -2.5425 1.7425 -3.5625 1.0625 C-2.5625 0.0625 -2.5625 0.0625 0 0 Z M14.4375 7.0625 C15.4275 7.5575 15.4275 7.5575 16.4375 8.0625 C15.4475 8.5575 15.4475 8.5575 14.4375 9.0625 C14.4375 8.4025 14.4375 7.7425 14.4375 7.0625 Z " fill="#406ED5" transform="translate(285.5625,179.9375)"/>
<path d="M0 0 C2.64 0.66 5.28 1.32 8 2 C7.68991116 3.60463449 7.37683713 5.20869231 7.0625 6.8125 C6.88847656 7.70582031 6.71445312 8.59914062 6.53515625 9.51953125 C6 12 6 12 5 15 C5.66 15.33 6.32 15.66 7 16 C6.67 16.66 6.34 17.32 6 18 C5.7677354 20.71262116 5.58063765 23.40773126 5.4375 26.125 C5.39431641 26.87910156 5.35113281 27.63320312 5.30664062 28.41015625 C5.2005168 30.27321888 5.09974999 32.13658524 5 34 C4.67 34 4.34 34 4 34 C3.97812622 32.82812134 3.97812622 32.82812134 3.95581055 31.63256836 C3.88099502 28.06706632 3.78444367 24.50246623 3.6875 20.9375 C3.66494141 19.70837891 3.64238281 18.47925781 3.61914062 17.21289062 C3.42826652 10.77522776 3.14768084 5.67932763 0 0 Z M7 14 C7.66 14 8.32 14 9 14 C8.67 14.66 8.34 15.32 8 16 C7.67 15.34 7.34 14.68 7 14 Z " fill="#336DD4" transform="translate(340,191)"/>
<path d="M0 0 C1.32 0.33 2.64 0.66 4 1 C4.66 3.31 5.32 5.62 6 8 C5.34 8.66 4.68 9.32 4 10 C3.01 10 2.02 10 1 10 C0.34 11.32 -0.32 12.64 -1 14 C-1.99 14 -2.98 14 -4 14 C-3.1814072 10.45541372 -1.95316937 7.18267829 -0.62109375 3.8046875 C0.10847432 2.00290613 0.10847432 2.00290613 0 0 Z " fill="#3656E2" transform="translate(261,210)"/>
<path d="M0 0 C3.96 0.33 7.92 0.66 12 1 C11.34 2.98 10.68 4.96 10 7 C3.9453125 7.1953125 3.9453125 7.1953125 2 7 C1.34 6.34 0.68 5.68 0 5 C0 3.35 0 1.7 0 0 Z " fill="#4058D5" transform="translate(236,209)"/>
<path d="M0 0 C8.58 0 17.16 0 26 0 C26 0.33 26 0.66 26 1 C21.545 1.495 21.545 1.495 17 2 C19.97 2.33 22.94 2.66 26 3 C26 3.33 26 3.66 26 4 C24.95199219 4.05607422 24.95199219 4.05607422 23.8828125 4.11328125 C22.97273438 4.17902344 22.06265625 4.24476563 21.125 4.3125 C20.22007812 4.37050781 19.31515625 4.42851562 18.3828125 4.48828125 C15.63778399 4.7882039 15.63778399 4.7882039 14 8 C13.34 7.67 12.68 7.34 12 7 C12.33 5.68 12.66 4.36 13 3 C9.37 2.34 5.74 1.68 2 1 C1.67 2.32 1.34 3.64 1 5 C0.67 3.35 0.34 1.7 0 0 Z " fill="#546ACA" transform="translate(234,208)"/>
<path d="M0 0 C0.33 0 0.66 0 1 0 C1 10.56 1 21.12 1 32 C0.67 32 0.34 32 0 32 C-3.13286713 7.63636364 -3.13286713 7.63636364 0 0 Z " fill="#464ECD" transform="translate(202,192)"/>
<path d="M0 0 C0.66 0 1.32 0 2 0 C2.66 1.65 3.32 3.3 4 5 C2.84765625 6.484375 2.84765625 6.484375 1 8 C-1.62890625 8.328125 -1.62890625 8.328125 -4.5625 8.25 C-6.01849609 8.22679687 -6.01849609 8.22679687 -7.50390625 8.203125 C-10 8 -10 8 -12 7 C-12.625 4.4375 -12.625 4.4375 -13 2 C-15.97 2.66 -18.94 3.32 -22 4 C-19 1 -19 1 -15.5 0.625 C-12 1 -12 1 -10.0625 2.375 C-9 4 -9 4 -9 6 C-5.7 6 -2.4 6 1 6 C0.67 4.02 0.34 2.04 0 0 Z " fill="#3D65D1" transform="translate(301,195)"/>
<path d="M0 0 C0.66 0.33 1.32 0.66 2 1 C2.103125 1.804375 2.20625 2.60875 2.3125 3.4375 C2.539375 4.283125 2.76625 5.12875 3 6 C4.2375 6.495 4.2375 6.495 5.5 7 C6.325 7.33 7.15 7.66 8 8 C8.8125 10.625 8.8125 10.625 9 13 C8.34 13 7.68 13 7 13 C7 12.01 7 11.02 7 10 C6.01 10 5.02 10 4 10 C3.67 10.66 3.34 11.32 3 12 C2.01 11.67 1.02 11.34 0 11 C0 9.35 0 7.7 0 6 C-0.66 6 -1.32 6 -2 6 C-2 4.35 -2 2.7 -2 1 C-1.34 0.67 -0.68 0.34 0 0 Z " fill="#5A33CB" transform="translate(102,210)"/>
<path d="M0 0 C3 1 3 1 4 2 C5.68183948 2.23287008 7.3712416 2.41264166 9.0625 2.5625 C10.44115234 2.68818359 10.44115234 2.68818359 11.84765625 2.81640625 C12.91306641 2.90728516 12.91306641 2.90728516 14 3 C13.979375 3.76699219 13.95875 4.53398437 13.9375 5.32421875 C14.00703424 8.30115328 14.77079637 10.31111707 16 13 C15.54109375 12.59007812 15.0821875 12.18015625 14.609375 11.7578125 C13.68898437 10.94957031 13.68898437 10.94957031 12.75 10.125 C12.14671875 9.59132812 11.5434375 9.05765625 10.921875 8.5078125 C6.617015 5.13042234 3.22226678 4.67901482 -2.25 4.375 C-3.51328125 4.30023438 -4.7765625 4.22546875 -6.078125 4.1484375 C-7.04234375 4.09945312 -8.0065625 4.05046875 -9 4 C-9 3.67 -9 3.34 -9 3 C-5.92382812 2.70703125 -5.92382812 2.70703125 -2.84765625 2.4140625 C-2.23792969 2.27742187 -1.62820312 2.14078125 -1 2 C-0.67 1.34 -0.34 0.68 0 0 Z " fill="#6960D2" transform="translate(131,169)"/>
<path d="M0 0 C0.66 0 1.32 0 2 0 C2 0.66 2 1.32 2 2 C2.66 1.34 3.32 0.68 4 0 C5.875 0.375 5.875 0.375 8 1 C9.32 1 10.64 1 12 1 C12.66 1.33 13.32 1.66 14 2 C14 2.66 14 3.32 14 4 C10.7 4.33 7.4 4.66 4 5 C3.01 7.64 2.02 10.28 1 13 C0.67 13 0.34 13 0 13 C-0.19551338 11.39679026 -0.38111983 9.79237014 -0.5625 8.1875 C-0.71912109 6.84751953 -0.71912109 6.84751953 -0.87890625 5.48046875 C-1 3 -1 3 0 0 Z " fill="#2D70EC" transform="translate(305,168)"/>
<path d="M0 0 C0.99 0.33 1.98 0.66 3 1 C3 9.25 3 17.5 3 26 C2.34 26 1.68 26 1 26 C0.67 17.42 0.34 8.84 0 0 Z " fill="#3467D0" transform="translate(330,199)"/>
<path d="M0 0 C7.92 0 15.84 0 24 0 C23.01 1.485 23.01 1.485 22 3 C21.319375 2.835 20.63875 2.67 19.9375 2.5 C15.27626069 1.70659756 11.32941796 1.55686068 6.8125 3.0625 C3.92239738 4.02586754 2.7856106 4.07138869 0 3 C0 2.01 0 1.02 0 0 Z " fill="#4F3FC2" transform="translate(160,225)"/>
<path d="M0 0 C0.4125 0.61875 0.825 1.2375 1.25 1.875 C3.05573879 4.06768281 4.4090534 4.92788417 7 6 C7 6.99 7 7.98 7 9 C7.66 9.33 8.32 9.66 9 10 C7.54257537 10.08096803 6.08387193 10.13917774 4.625 10.1875 C3.81289062 10.22230469 3.00078125 10.25710937 2.1640625 10.29296875 C1.44992188 10.19628906 0.73578125 10.09960938 0 10 C-0.66 9.01 -1.32 8.02 -2 7 C-1.125 3.3125 -1.125 3.3125 0 0 Z " fill="#5839CC" transform="translate(122,203)"/>
<path d="M0 0 C0.33 0 0.66 0 1 0 C1.19676277 8.29683005 1.25943749 15.95075394 -1 24 C-1.33 24 -1.66 24 -2 24 C-2.05787784 20.37506666 -2.0935542 16.75025143 -2.125 13.125 C-2.14175781 12.09246094 -2.15851562 11.05992187 -2.17578125 9.99609375 C-2.18222656 9.00996094 -2.18867187 8.02382812 -2.1953125 7.0078125 C-2.20578613 6.09660645 -2.21625977 5.18540039 -2.22705078 4.24658203 C-2 2 -2 2 0 0 Z " fill="#6536CE" transform="translate(52,183)"/>
<path d="M0 0 C0.92941406 -0.01675781 1.85882813 -0.03351563 2.81640625 -0.05078125 C5.83133356 0.36708498 7.19264486 1.31061741 9.4375 3.3125 C8.35210937 3.26609375 7.26671875 3.2196875 6.1484375 3.171875 C4.70315269 3.13433513 3.25783789 3.09793736 1.8125 3.0625 C1.09964844 3.02898437 0.38679688 2.99546875 -0.34765625 2.9609375 C-5.66158607 2.8634342 -8.16898257 4.14298303 -12.5625 7.3125 C-13.5525 6.9825 -14.5425 6.6525 -15.5625 6.3125 C-10.56912066 2.03246057 -6.62677597 0.02764997 0 0 Z " fill="#D4E9FD" transform="translate(285.5625,186.6875)"/>
<path d="M0 0 C2.625 -0.4375 2.625 -0.4375 6 0 C9.70955033 3.08258408 12.98298481 7.25392911 14 12 C13.85112366 15.03399707 13.48328435 18.00233087 13 21 C12.67 21 12.34 21 12 21 C11.91363281 20.19175781 11.82726562 19.38351563 11.73828125 18.55078125 C10.93036532 11.8090022 10.93036532 11.8090022 7.6875 6 C6.800625 5.34 5.91375 4.68 5 4 C4.071875 3.236875 3.14375 2.47375 2.1875 1.6875 C1.465625 1.130625 0.74375 0.57375 0 0 Z " fill="#4D6CD0" transform="translate(248,187)"/>
<path d="M0 0 C0.33 0 0.66 0 1 0 C1.02578125 0.90621094 1.0515625 1.81242188 1.078125 2.74609375 C1.43361994 10.38115545 2.28911308 16.30640019 6 23 C6.33128906 23.71929687 6.66257812 24.43859375 7.00390625 25.1796875 C7.869573 27.17226732 7.869573 27.17226732 10 28 C9.01 28 8.02 28 7 28 C7 27.34 7 26.68 7 26 C6.21625 25.835 5.4325 25.67 4.625 25.5 C2 24 2 24 0.6875 20.875 C-0.66529588 14.07309174 -0.15070126 6.89876871 0 0 Z " fill="#6B52BA" transform="translate(103,192)"/>
<path d="M0 0 C0.99 0.66 1.98 1.32 3 2 C4.9896995 2.39013716 6.99019869 2.73202649 9 3 C9 2.01 9 1.02 9 0 C13 0 13 0 16 2 C16 2.66 16 3.32 16 4 C14.75283203 4.05607422 14.75283203 4.05607422 13.48046875 4.11328125 C12.39378906 4.17902344 11.30710937 4.24476563 10.1875 4.3125 C8.56908203 4.39951172 8.56908203 4.39951172 6.91796875 4.48828125 C3.82502483 5.03068507 2.86977097 5.55289624 1 8 C0.67 6.68 0.34 5.36 0 4 C-0.66 4 -1.32 4 -2 4 C-1 1 -1 1 0 0 Z " fill="#6742D1" transform="translate(52,168)"/>
<path d="M0 0 C1.10868317 3.32604951 1.54177532 6.53058454 2 10 C1.01 10.495 1.01 10.495 0 11 C-0.66 9.35 -1.32 7.7 -2 6 C-5.96 5.67 -9.92 5.34 -14 5 C-9.98406605 2.99203303 -6.42036363 1.68005594 -2 1 C-1.34 1.33 -0.68 1.66 0 2 C0 1.34 0 0.68 0 0 Z " fill="#4A46D4" transform="translate(191,208)"/>
<path d="M0 0 C1.32 0.33 2.64 0.66 4 1 C3.34 1.94875 2.68 2.8975 2 3.875 C-0.96389065 9.06706376 -0.74479456 14.45275811 0.4609375 20.1953125 C0.91340738 21.81502353 1.44751925 23.41161785 2 25 C0.68 24.34 -0.64 23.68 -2 23 C-2 17.06 -2 11.12 -2 5 C-1.34 5 -0.68 5 0 5 C0 3.35 0 1.7 0 0 Z " fill="#5563CA" transform="translate(225,192)"/>
<path d="M0 0 C4.62 0 9.24 0 14 0 C12 4 12 4 10 4.8125 C8 5 8 5 6 4 C6 4.99 6 5.98 6 7 C4.125 6.875 4.125 6.875 2 6 C1.34 4.02 0.68 2.04 0 0 Z " fill="#2E60DF" transform="translate(307,224)"/>
<path d="M0 0 C0.66 0 1.32 0 2 0 C2.02712066 1.43739513 2.04645067 2.87493863 2.0625 4.3125 C2.07410156 5.11300781 2.08570313 5.91351563 2.09765625 6.73828125 C2 9 2 9 1 12 C0.34 12 -0.32 12 -1 12 C-1 11.01 -1 10.02 -1 9 C-1.66 9 -2.32 9 -3 9 C-3.33 9.99 -3.66 10.98 -4 12 C-4.99 11.67 -5.98 11.34 -7 11 C-6.01 10.67 -5.02 10.34 -4 10 C-2.86454438 7.70465742 -2.86454438 7.70465742 -2 5 C-1.33333333 3.33333333 -0.66666667 1.66666667 0 0 Z " fill="#416BDC" transform="translate(303,210)"/>
<path d="M0 0 C0.99 0 1.98 0 3 0 C3 2.97 3 5.94 3 9 C-1.62 9 -6.24 9 -11 9 C-7.79619983 6.86413322 -6.98060033 6.76867825 -3.3125 6.875 C-2.10013672 6.90207031 -2.10013672 6.90207031 -0.86328125 6.9296875 C0.05904297 6.96449219 0.05904297 6.96449219 1 7 C0.67 4.69 0.34 2.38 0 0 Z " fill="#E9F5FE" transform="translate(226,174)"/>
<path d="M0 0 C4.69241308 -0.46924131 8.63327614 -0.83043081 12.5 2.1875 C14.9954447 4.99487529 15.78931408 6.31299634 16 10 C14.5 8.625 14.5 8.625 13 7 C13 6.34 13 5.68 13 5 C12.01 4.67 11.02 4.34 10 4 C9.67 4.66 9.34 5.32 9 6 C8.34 6 7.68 6 7 6 C7 4.68 7 3.36 7 2 C4.69 1.67 2.38 1.34 0 1 C0 0.67 0 0.34 0 0 Z " fill="#5E51C6" transform="translate(123,182)"/>
<path d="M0 0 C1.65 0 3.3 0 5 0 C4.443125 0.4125 3.88625 0.825 3.3125 1.25 C2.1678125 2.11625 2.1678125 2.11625 1 3 C0.175 3.61875 -0.65 4.2375 -1.5 4.875 C-4.05315651 7.04518303 -5.99388177 9.32517569 -8 12 C-8 10.68 -8 9.36 -8 8 C-7.34 8 -6.68 8 -6 8 C-6.99 6.35 -7.98 4.7 -9 3 C-8.2575 3.020625 -7.515 3.04125 -6.75 3.0625 C-4.29537721 3.00671312 -2.33890739 2.6930096 0 2 C0 1.34 0 0.68 0 0 Z " fill="#634FC7" transform="translate(114,173)"/>
<path d="M0 0 C0.66 0.33 1.32 0.66 2 1 C2.87343807 4.20260627 3.12994939 6.44121764 2.375 9.6875 C0.68720569 12.52606315 -1.07968003 13.53984001 -4 15 C-4 13.68 -4 12.36 -4 11 C-2.68 11 -1.36 11 0 11 C0 7.37 0 3.74 0 0 Z " fill="#4B47BB" transform="translate(189,214)"/>
<path d="M0 0 C2.31 0 4.62 0 7 0 C5.7934375 0.804375 5.7934375 0.804375 4.5625 1.625 C0.59452362 5.44725973 1.23923319 10.95205686 1.04296875 16.11328125 C1.02878906 17.06589844 1.01460938 18.01851562 1 19 C0.67 19 0.34 19 0 19 C0 12.73 0 6.46 0 0 Z " fill="#5E31C8" transform="translate(68,205)"/>
<path d="M0 0 C0 0.66 0 1.32 0 2 C0.66 2 1.32 2 2 2 C1.34 3.32 0.68 4.64 0 6 C-3.11227195 6 -5.94152152 5.54372951 -9 5 C-7.16182974 1.32365947 -3.97378668 0 0 0 Z " fill="#553ACE" transform="translate(147,219)"/>
<path d="M0 0 C0.99 0.33 1.98 0.66 3 1 C2.01 2.485 2.01 2.485 1 4 C0.63322321 6.60911673 0.49618999 9.19072265 0.34375 11.8203125 C0.2303125 12.53960937 0.116875 13.25890625 0 14 C-0.99 14.495 -0.99 14.495 -2 15 C-2.19573608 13.56359829 -2.38127816 12.12580496 -2.5625 10.6875 C-2.66691406 9.88699219 -2.77132813 9.08648437 -2.87890625 8.26171875 C-3 6 -3 6 -2 3 C-1.34 3 -0.68 3 0 3 C0 2.01 0 1.02 0 0 Z " fill="#DBECFC" transform="translate(277,197)"/>
<path d="M0 0 C3.96 0 7.92 0 12 0 C12 0.99 12 1.98 12 3 C8.7 3.33 5.4 3.66 2 4 C2 3.34 2 2.68 2 2 C1.34 2 0.68 2 0 2 C0 1.34 0 0.68 0 0 Z " fill="#4349C9" transform="translate(204,225)"/>
<path d="M0 0 C2.97 0 5.94 0 9 0 C6.88306276 2.43055758 5.46478674 3.84507109 2.375 4.875 C1.59125 4.91625 0.8075 4.9575 0 5 C-0.66 4.34 -1.32 3.68 -2 3 C-1.34 2.67 -0.68 2.34 0 2 C0 1.34 0 0.68 0 0 Z " fill="#2963DC" transform="translate(335,225)"/>
<path d="M0 0 C2 1.6875 2 1.6875 4 4 C4 5.65 4 7.3 4 9 C0.7 9 -2.6 9 -6 9 C-6.33 8.01 -6.66 7.02 -7 6 C-2.545 6.99 -2.545 6.99 2 8 C1.34 6.68 0.68 5.36 0 4 C0 2.68 0 1.36 0 0 Z " fill="#D7EFFD" transform="translate(298,192)"/>
<path d="M0 0 C1.9375 0.625 1.9375 0.625 4 2 C4.75 5.125 4.75 5.125 5 8 C4.34 8 3.68 8 3 8 C2.67 8.66 2.34 9.32 2 10 C-0.09350689 6.5980513 -0.17942163 3.94727588 0 0 Z " fill="#355FE3" transform="translate(260,192)"/>
<path d="M0 0 C0.99 0.99 1.98 1.98 3 3 C2.67 3.66 2.34 4.32 2 5 C1.92907158 7.2072923 1.91584975 9.41667452 1.9375 11.625 C1.94652344 12.81351563 1.95554687 14.00203125 1.96484375 15.2265625 C1.97644531 16.14179688 1.98804687 17.05703125 2 18 C3.65 18.33 5.3 18.66 7 19 C7 19.33 7 19.66 7 20 C5.00045254 20.04254356 2.99958364 20.04080783 1 20 C0 19 0 19 -0.11352539 17.14233398 C-0.10828857 16.35157471 -0.10305176 15.56081543 -0.09765625 14.74609375 C-0.09443359 13.89208984 -0.09121094 13.03808594 -0.08789062 12.15820312 C-0.07951172 11.26037109 -0.07113281 10.36253906 -0.0625 9.4375 C-0.05798828 8.53580078 -0.05347656 7.63410156 -0.04882812 6.70507812 C-0.03700225 4.46998686 -0.0205222 2.23502563 0 0 Z " fill="#633DCB" transform="translate(68,172)"/>
<path d="M0 0 C0.99 0.33 1.98 0.66 3 1 C4.56118428 1.06740865 6.1250252 1.08514456 7.6875 1.0625 C8.49574219 1.05347656 9.30398437 1.04445312 10.13671875 1.03515625 C10.75160156 1.02355469 11.36648437 1.01195312 12 1 C11.67 1.99 11.34 2.98 11 4 C9.741875 4.04125 8.48375 4.0825 7.1875 4.125 C6.47980469 4.14820313 5.77210937 4.17140625 5.04296875 4.1953125 C3 4 3 4 0 2 C0 1.34 0 0.68 0 0 Z " fill="#5F2BB7" transform="translate(53,224)"/>
<path d="M0 0 C1.5 1.3125 1.5 1.3125 3 3 C3 3.99 3 4.98 3 6 C0.69 6 -1.62 6 -4 6 C-3.6875 4.125 -3.6875 4.125 -3 2 C-2.01 1.34 -1.02 0.68 0 0 Z " fill="#F8FBFA" transform="translate(297,194)"/>
<path d="M0 0 C0.99 0.33 1.98 0.66 3 1 C3.33 0.67 3.66 0.34 4 0 C5.99958364 -0.04080783 8.00045254 -0.04254356 10 0 C10 0.66 10 1.32 10 2 C9.030625 2.12375 8.06125 2.2475 7.0625 2.375 C6.051875 2.58125 5.04125 2.7875 4 3 C3.67 3.66 3.34 4.32 3 5 C1.68 5 0.36 5 -1 5 C-0.67 3.35 -0.34 1.7 0 0 Z " fill="#3466E5" transform="translate(273,184)"/>
<path d="M0 0 C0 4.02627976 -1.73312762 5.73303687 -4 9 C-4.69429379 10.3191582 -5.37530495 11.64649406 -6 13 C-7 10 -7 10 -6.328125 8.02734375 C-5.97234375 7.33769531 -5.6165625 6.64804688 -5.25 5.9375 C-4.90453125 5.24527344 -4.5590625 4.55304688 -4.203125 3.83984375 C-3 2 -3 2 0 0 Z " fill="#6756BD" transform="translate(121,183)"/>
<path d="M0 0 C0.99 0.33 1.98 0.66 3 1 C-0.02673621 4.23547663 -1.89621005 5.91717362 -6.48046875 6.09765625 C-7.37378906 6.08605469 -8.26710938 6.07445312 -9.1875 6.0625 C-10.53908203 6.04896484 -10.53908203 6.04896484 -11.91796875 6.03515625 C-12.60503906 6.02355469 -13.29210937 6.01195312 -14 6 C-14 5.67 -14 5.34 -14 5 C-13.39671875 4.96261719 -12.7934375 4.92523438 -12.171875 4.88671875 C-6.00257398 4.43625406 -6.00257398 4.43625406 -1 1 C-0.67 0.67 -0.34 0.34 0 0 Z " fill="#C8DAFB" transform="translate(294,219)"/>
<path d="M0 0 C3.3 0 6.6 0 10 0 C9.49701212 4.40114397 7.91227269 6.71195019 5 10 C4.67 9.01 4.34 8.02 4 7 C4.99 6.67 5.98 6.34 7 6 C7.33 4.35 7.66 2.7 8 1 C5.36 1 2.72 1 0 1 C0 0.67 0 0.34 0 0 Z " fill="#BEDAF4" transform="translate(293,210)"/>
<path d="M0 0 C0.99 0 1.98 0 3 0 C1.25 3.875 1.25 3.875 -1 5 C-3.9375 5.25 -3.9375 5.25 -7 5 C-7.99 4.01 -8.98 3.02 -10 2 C-7.03 2 -4.06 2 -1 2 C-0.67 1.34 -0.34 0.68 0 0 Z " fill="#4F6BCB" transform="translate(289,211)"/>
<path d="M0 0 C2.31 0.33 4.62 0.66 7 1 C7 1.66 7 2.32 7 3 C10.63 3.33 14.26 3.66 18 4 C18 4.33 18 4.66 18 5 C10.71304215 5.474377 6.02818509 5.28670939 0 1 C0 0.67 0 0.34 0 0 Z " fill="#C3CEF8" transform="translate(230,220)"/>
<path d="M0 0 C3.12290635 0.48578543 5.99580359 0.9986012 9 2 C9.33 3.65 9.66 5.3 10 7 C8.33073546 6.02526874 6.66464358 5.04510211 5 4.0625 C4.071875 3.51722656 3.14375 2.97195312 2.1875 2.41015625 C1.465625 1.94480469 0.74375 1.47945312 0 1 C0 0.67 0 0.34 0 0 Z M9 0 C9.99 0.495 9.99 0.495 11 1 C10.01 1.495 10.01 1.495 9 2 C9 1.34 9 0.68 9 0 Z " fill="#4471D3" transform="translate(291,187)"/>
<path d="M0 0 C0.66 0 1.32 0 2 0 C2 1.65 2 3.3 2 5 C-0.31 5 -2.62 5 -5 5 C-5 4.01 -5 3.02 -5 2 C-3.35 2 -1.7 2 0 2 C0 1.34 0 0.68 0 0 Z " fill="#4E44D2" transform="translate(172,208)"/>
<path d="M0 0 C0.66 0 1.32 0 2 0 C3.0625 2.375 3.0625 2.375 4 5 C3.67 5.66 3.34 6.32 3 7 C-0.96 7 -4.92 7 -9 7 C-9 6.67 -9 6.34 -9 6 C-5.7 6 -2.4 6 1 6 C0.67 4.02 0.34 2.04 0 0 Z " fill="#668CE3" transform="translate(301,195)"/>
<path d="M0 0 C1.45823212 -0.0270043 2.91660675 -0.04639787 4.375 -0.0625 C5.18710938 -0.07410156 5.99921875 -0.08570313 6.8359375 -0.09765625 C9 0 9 0 11 1 C11 3.31 11 5.62 11 8 C8 4.25 8 4.25 8 2 C5.36 1.67 2.72 1.34 0 1 C0 0.67 0 0.34 0 0 Z " fill="#DCE9F8" transform="translate(240,194)"/>
<path d="M0 0 C1.09570312 0.00902344 2.19140625 0.01804688 3.3203125 0.02734375 C4.16335937 0.03894531 5.00640625 0.05054688 5.875 0.0625 C2.91730603 2.03429598 1.71082038 2.43179854 -1.6875 2.8125 C-2.47253906 2.91046875 -3.25757813 3.0084375 -4.06640625 3.109375 C-6.125 3.0625 -6.125 3.0625 -8.125 1.0625 C-5.36047967 -0.31976016 -3.0788637 -0.03275387 0 0 Z " fill="#CBDEFB" transform="translate(242.125,186.9375)"/>
<path d="M0 0 C0.99 0.33 1.98 0.66 3 1 C3 1.66 3 2.32 3 3 C5.31 3 7.62 3 10 3 C9.01 3.495 9.01 3.495 8 4 C8 4.66 8 5.32 8 6 C6.51800098 5.55090939 5.03944764 5.09043436 3.5625 4.625 C2.73878906 4.36976563 1.91507812 4.11453125 1.06640625 3.8515625 C-1 3 -1 3 -2 1 C-1.34 0.67 -0.68 0.34 0 0 Z " fill="#3159DB" transform="translate(280,225)"/>
<path d="M0 0 C1.32 0.33 2.64 0.66 4 1 C3.34 4.3 2.68 7.6 2 11 C1.67 11 1.34 11 1 11 C0.67 7.37 0.34 3.74 0 0 Z " fill="#236FED" transform="translate(344,192)"/>
<path d="M0 0 C4.92307692 4.30769231 4.92307692 4.30769231 5.3125 7.8125 C5.209375 8.534375 5.10625 9.25625 5 10 C1.55783328 7.3401439 1.00495326 4.09711714 0 0 Z " fill="#DBF0FD" transform="translate(338,190)"/>
<path d="M0 0 C1.2065625 0.0309375 1.2065625 0.0309375 2.4375 0.0625 C2.7675 1.0525 3.0975 2.0425 3.4375 3.0625 C3.1075 3.7225 2.7775 4.3825 2.4375 5.0625 C1.1175 4.7325 -0.2025 4.4025 -1.5625 4.0625 C-1.2325 3.7325 -0.9025 3.4025 -0.5625 3.0625 C-1.5525 2.4025 -2.5425 1.7425 -3.5625 1.0625 C-2.5625 0.0625 -2.5625 0.0625 0 0 Z " fill="#3269EA" transform="translate(285.5625,179.9375)"/>
<path d="M0 0 C0.99 0.66 1.98 1.32 3 2 C2.67 2.66 2.34 3.32 2 4 C-0.64 4 -3.28 4 -6 4 C-6.33 3.34 -6.66 2.68 -7 2 C-4.69 2 -2.38 2 0 2 C0 1.34 0 0.68 0 0 Z " fill="#544AE0" transform="translate(141,168)"/>
<path d="M0 0 C2.64 0 5.28 0 8 0 C5.64031256 2.09749995 4.45383006 2.96905704 1.25 3.1875 C0.13625 3.0946875 0.13625 3.0946875 -1 3 C-0.67 2.01 -0.34 1.02 0 0 Z " fill="#5B30B9" transform="translate(89,225)"/>
<path d="M0 0 C0 0.99 0 1.98 0 3 C-3.20015856 4.06671952 -4.88544294 3.94845472 -8.1875 3.5625 C-9.08855469 3.46066406 -9.98960938 3.35882813 -10.91796875 3.25390625 C-11.60503906 3.17011719 -12.29210937 3.08632812 -13 3 C-13 2.67 -13 2.34 -13 2 C-8.71 1.34 -4.42 0.68 0 0 Z " fill="#715AC4" transform="translate(137,222)"/>
<path d="M0 0 C0.33 1.32 0.66 2.64 1 4 C-1.31 3.67 -3.62 3.34 -6 3 C-6 2.34 -6 1.68 -6 1 C-4 0 -4 0 0 0 Z " fill="#3B59E2" transform="translate(246,196)"/>
<path d="M0 0 C8.19256018 -0.63019694 8.19256018 -0.63019694 11.5625 2 C12.036875 2.66 12.51125 3.32 13 4 C10 4 10 4 8.1875 3.0625 C5.49702226 1.75569653 2.94897515 1.40213297 0 1 C0 0.67 0 0.34 0 0 Z " fill="#4B7CD2" transform="translate(328,186)"/>
<path d="M0 0 C4.95 0.33 9.9 0.66 15 1 C15 1.33 15 1.66 15 2 C13.06494977 2.24900646 11.12674066 2.47356242 9.1875 2.6875 C8.10855469 2.81511719 7.02960938 2.94273437 5.91796875 3.07421875 C3 3 3 3 0 0 Z " fill="#4664C9" transform="translate(231,185)"/>
<path d="M0 0 C1.134375 0.12375 2.26875 0.2475 3.4375 0.375 C4.0975 1.365 4.7575 2.355 5.4375 3.375 C4.4475 3.375 3.4575 3.375 2.4375 3.375 C2.4375 2.715 2.4375 2.055 2.4375 1.375 C-0.5325 2.035 -3.5025 2.695 -6.5625 3.375 C-3.5625 0.375 -3.5625 0.375 0 0 Z " fill="#5573D2" transform="translate(285.5625,195.625)"/>
<path d="M0 0 C3.80666984 1.44390925 5.26602582 3.34952803 7 7 C6.67 7.66 6.34 8.32 6 9 C5.7525 8.21625 5.505 7.4325 5.25 6.625 C3.84610901 3.67682892 2.99324263 3.0975223 0 2 C0 1.34 0 0.68 0 0 Z " fill="#6357BB" transform="translate(132,183)"/>
<path d="M0 0 C1.3921875 0.3403125 1.3921875 0.3403125 2.8125 0.6875 C1.4925 1.0175 0.1725 1.3475 -1.1875 1.6875 C-1.1875 2.3475 -1.1875 3.0075 -1.1875 3.6875 C-2.8375 3.3575 -4.4875 3.0275 -6.1875 2.6875 C-4.14987265 -0.14253799 -3.59070275 -0.35202968 0 0 Z " fill="#3368F3" transform="translate(301.1875,185.3125)"/>
<path d="M0 0 C2.64 0 5.28 0 8 0 C8.33 0.66 8.66 1.32 9 2 C7.02 2.33 5.04 2.66 3 3 C3 2.34 3 1.68 3 1 C2.01 0.67 1.02 0.34 0 0 Z " fill="#5F37C9" transform="translate(77,205)"/>
<path d="M0 0 C1.65 0 3.3 0 5 0 C5 0.99 5 1.98 5 3 C3.35 3.33 1.7 3.66 0 4 C0 2.68 0 1.36 0 0 Z " fill="#5F41DA" transform="translate(100,176)"/>
<path d="M0 0 C3.67420866 0.30618405 4.78135513 0.75771784 7.3125 3.5625 C8.1478125 4.7690625 8.1478125 4.7690625 9 6 C8.67 6.66 8.34 7.32 8 8 C5.33333333 5.33333333 2.66666667 2.66666667 0 0 Z " fill="#615AC4" transform="translate(138,174)"/>
<path d="M0 0 C-0.33 0.66 -0.66 1.32 -1 2 C-4.0625 2.625 -4.0625 2.625 -7 3 C-7 2.01 -7 1.02 -7 0 C-2.25 -1.125 -2.25 -1.125 0 0 Z " fill="#FCFDF3" transform="translate(132,217)"/>
<path d="M0 0 C1.65 0 3.3 0 5 0 C5 0.99 5 1.98 5 3 C3.02 3 1.04 3 -1 3 C-0.67 2.01 -0.34 1.02 0 0 Z " fill="#3361EE" transform="translate(283,197)"/>
<path d="M0 0 C1.32 0.33 2.64 0.66 4 1 C4 3.31 4 5.62 4 8 C1.10067643 5.60490662 0.49831724 3.68754757 0 0 Z " fill="#5C52C3" transform="translate(147,182)"/>
</svg>
