<?xml version="1.0" standalone="no"?>
<!DOCTYPE svg PUBLIC "-//W3C//DTD SVG 20010904//EN"
 "http://www.w3.org/TR/2001/REC-SVG-20010904/DTD/svg10.dtd">
<svg version="1.0" xmlns="http://www.w3.org/2000/svg"
 width="316.000000pt" height="316.000000pt" viewBox="0 0 316.000000 316.000000"
 preserveAspectRatio="xMidYMid meet">

<g transform="translate(0.000000,316.000000) scale(0.100000,-0.100000)"
fill="#000000" stroke="none">
<path d="M1458 3133 c18 -2 45 -2 60 0 15 2 0 4 -33 4 -33 0 -45 -2 -27 -4z"/>
<path d="M1648 3133 c18 -2 45 -2 60 0 15 2 0 4 -33 4 -33 0 -45 -2 -27 -4z"/>
<path d="M1363 3123 c9 -2 23 -2 30 0 6 3 -1 5 -18 5 -16 0 -22 -2 -12 -5z"/>
<path d="M1773 3123 c9 -2 23 -2 30 0 6 3 -1 5 -18 5 -16 0 -22 -2 -12 -5z"/>
<path d="M1298 3113 c6 -2 18 -2 25 0 6 3 1 5 -13 5 -14 0 -19 -2 -12 -5z"/>
<path d="M1838 3113 c6 -2 18 -2 25 0 6 3 1 5 -13 5 -14 0 -19 -2 -12 -5z"/>
<path d="M1248 3103 c7 -3 16 -2 19 1 4 3 -2 6 -13 5 -11 0 -14 -3 -6 -6z"/>
<path d="M1898 3103 c7 -3 16 -2 19 1 4 3 -2 6 -13 5 -11 0 -14 -3 -6 -6z"/>
<path d="M1208 3093 c7 -3 16 -2 19 1 4 3 -2 6 -13 5 -11 0 -14 -3 -6 -6z"/>
<path d="M1938 3093 c7 -3 16 -2 19 1 4 3 -2 6 -13 5 -11 0 -14 -3 -6 -6z"/>
<path d="M1168 3083 c7 -3 16 -2 19 1 4 3 -2 6 -13 5 -11 0 -14 -3 -6 -6z"/>
<path d="M1978 3083 c7 -3 16 -2 19 1 4 3 -2 6 -13 5 -11 0 -14 -3 -6 -6z"/>
<path d="M1879 3003 l-24 -28 27 24 c28 24 54 20 43 -6 -4 -13 -3 -14 10 -3
14 11 13 14 -2 26 -24 18 -26 18 -54 -13z"/>
<path d="M950 3010 c-8 -5 -10 -10 -5 -10 6 0 17 5 25 10 8 5 11 10 5 10 -5 0
-17 -5 -25 -10z"/>
<path d="M2045 3011 c-6 -11 13 -26 22 -17 4 3 0 6 -8 7 -8 0 -6 4 6 9 16 7
17 9 3 9 -9 1 -19 -3 -23 -8z"/>
<path d="M2190 3010 c8 -5 20 -10 25 -10 6 0 3 5 -5 10 -8 5 -19 10 -25 10 -5
0 -3 -5 5 -10z"/>
<path d="M1302 2970 c0 -14 2 -19 5 -12 2 6 2 18 0 25 -3 6 -5 1 -5 -13z"/>
<path d="M1945 2960 c-10 -11 -16 -20 -12 -20 3 0 14 -3 24 -6 14 -5 15 -4 4
4 -12 9 -12 13 -2 26 19 23 7 20 -14 -4z"/>
<path d="M1232 2940 c0 -14 2 -19 5 -12 2 6 2 18 0 25 -3 6 -5 1 -5 -13z"/>
<path d="M2057 2945 c3 -10 0 -21 -8 -26 -11 -7 -11 -9 4 -9 18 0 24 34 7 45
-6 4 -7 -1 -3 -10z"/>
<path d="M804 2934 c-18 -14 -18 -15 4 -4 12 6 22 13 22 15 0 8 -5 6 -26 -11z"/>
<path d="M2330 2946 c0 -3 9 -10 20 -16 11 -6 20 -8 20 -6 0 3 -9 10 -20 16
-11 6 -20 8 -20 6z"/>
<path d="M1311 2924 c0 -11 3 -14 6 -6 3 7 2 16 -1 19 -3 4 -6 -2 -5 -13z"/>
<path d="M754 2904 c-18 -14 -18 -15 4 -4 12 6 22 13 22 15 0 8 -5 6 -26 -11z"/>
<path d="M2005 2903 c5 -19 2 -23 -17 -23 -18 0 -20 2 -8 10 13 8 12 10 -3 10
-29 0 -14 -25 16 -28 29 -4 35 11 16 38 -8 12 -9 10 -4 -7z"/>
<path d="M2380 2916 c0 -3 9 -10 20 -16 11 -6 20 -8 20 -6 0 3 -9 10 -20 16
-11 6 -20 8 -20 6z"/>
<path d="M1101 2900 c0 -8 4 -22 9 -30 12 -18 12 -2 0 25 -6 13 -9 15 -9 5z"/>
<path d="M2102 2888 c2 -7 -5 -12 -16 -11 -13 1 -15 -2 -7 -10 8 -8 15 -7 27
5 11 11 13 18 5 23 -7 4 -10 1 -9 -7z"/>
<path d="M1011 2854 c0 -11 3 -14 6 -6 3 7 2 16 -1 19 -3 4 -6 -2 -5 -13z"/>
<path d="M1529 2866 c-2 -2 -40 -7 -84 -10 -140 -9 -323 -59 -449 -123 -131
-66 -277 -178 -378 -288 -49 -54 -110 -136 -105 -141 2 -2 34 5 71 16 74 21
198 45 287 55 93 10 334 7 448 -6 59 -7 119 -9 134 -5 18 4 44 33 89 99 39 58
112 141 196 225 74 74 132 136 129 138 -15 15 -325 52 -338 40z m151 -166 c0
-5 -4 -10 -10 -10 -5 0 -10 5 -10 10 0 6 5 10 10 10 6 0 10 -4 10 -10z m-406
-6 c9 -3 16 -12 16 -20 0 -8 4 -14 10 -14 5 0 6 -7 3 -17 -4 -11 -3 -14 5 -9
26 16 11 -46 -17 -75 -33 -32 -58 -36 -100 -14 -32 16 -41 33 -41 78 0 58 63
94 124 71z"/>
<path d="M1247 2663 c-4 -3 1 -12 9 -21 9 -9 19 -11 24 -6 6 6 2 14 -9 21 -10
7 -21 9 -24 6z"/>
<path d="M2134 2861 c4 -5 1 -12 -4 -14 -6 -3 -5 -4 2 -3 15 3 23 26 8 26 -6
0 -9 -4 -6 -9z"/>
<path d="M976 2827 c3 -10 9 -15 12 -12 3 3 0 11 -7 18 -10 9 -11 8 -5 -6z"/>
<path d="M599 2793 c-13 -16 -12 -17 4 -4 9 7 17 15 17 17 0 8 -8 3 -21 -13z"/>
<path d="M2540 2806 c0 -2 8 -10 18 -17 15 -13 16 -12 3 4 -13 16 -21 21 -21
13z"/>
<path d="M1924 2742 c-110 -125 -221 -312 -231 -391 -7 -51 11 -67 134 -117
54 -21 146 -67 206 -101 59 -33 113 -63 120 -66 33 -13 212 -176 287 -262 153
-174 258 -337 321 -499 l27 -70 16 53 c27 92 39 219 33 356 -6 140 -21 224
-63 350 -50 151 -181 378 -232 400 -12 5 -22 17 -22 25 0 24 -107 124 -133
125 -15 0 -21 5 -19 17 6 38 -284 213 -370 223 -29 4 -38 -1 -74 -43z m361
-132 c3 -5 -1 -10 -10 -10 -9 0 -13 5 -10 10 3 6 8 10 10 10 2 0 7 -4 10 -10z
m-495 -130 c0 -5 -4 -10 -10 -10 -5 0 -10 5 -10 10 0 6 5 10 10 10 6 0 10 -4
10 -10z"/>
<path d="M475 2678 l-90 -93 93 90 c50 49 92 91 92 92 0 8 -12 -4 -95 -89z"/>
<path d="M2675 2680 c49 -49 92 -90 95 -90 2 0 -36 41 -85 90 -49 50 -92 90
-95 90 -2 0 36 -40 85 -90z"/>
<path d="M736 2705 c4 -8 11 -15 16 -15 6 0 5 6 -2 15 -7 8 -14 15 -16 15 -2
0 -1 -7 2 -15z"/>
<path d="M686 2667 c3 -10 9 -15 12 -12 3 3 0 11 -7 18 -10 9 -11 8 -5 -6z"/>
<path d="M561 2571 c7 -10 21 -24 33 -31 15 -9 12 -3 -8 19 -34 35 -41 39 -25
12z"/>
<path d="M1691 2556 c-17 -18 -19 -26 -10 -31 8 -5 10 -4 5 3 -4 7 -3 12 3 12
6 0 15 9 21 20 14 26 8 25 -19 -4z"/>
<path d="M359 2553 c-13 -16 -12 -17 4 -4 9 7 17 15 17 17 0 8 -8 3 -21 -13z"/>
<path d="M2780 2566 c0 -2 8 -10 18 -17 15 -13 16 -12 3 4 -13 16 -21 21 -21
13z"/>
<path d="M524 2531 c20 -22 26 -25 26 -13 0 4 -10 13 -22 21 -23 14 -23 14 -4
-8z"/>
<path d="M457 2483 c-3 -5 4 -15 16 -23 21 -12 21 -12 7 6 -8 10 -15 20 -16
22 -1 2 -4 -1 -7 -5z"/>
<path d="M1619 2463 c-13 -16 -12 -17 4 -4 9 7 17 15 17 17 0 8 -8 3 -21 -13z"/>
<path d="M220 2350 c-6 -11 -8 -20 -6 -20 3 0 10 9 16 20 6 11 8 20 6 20 -3 0
-10 -9 -16 -20z"/>
<path d="M1545 2339 c-9 -17 -15 -33 -13 -35 3 -2 12 12 21 31 21 43 13 47 -8
4z"/>
<path d="M2930 2350 c6 -11 13 -20 16 -20 2 0 0 9 -6 20 -6 11 -13 20 -16 20
-2 0 0 -9 6 -20z"/>
<path d="M1581 2264 c0 -11 3 -14 6 -6 3 7 2 16 -1 19 -3 4 -6 -2 -5 -13z"/>
<path d="M329 2230 c13 -11 30 -20 39 -20 19 0 15 3 -28 24 l-35 17 24 -21z"/>
<path d="M597 2244 c-14 -15 -7 -90 13 -122 26 -43 26 -46 -15 -103 -19 -27
-35 -53 -35 -58 0 -13 80 -75 87 -67 3 3 0 12 -7 21 -10 12 -10 15 4 15 14 0
16 6 10 35 -6 32 -3 36 30 56 48 28 63 79 37 123 -23 38 -21 77 4 86 10 4 14
9 9 12 -15 8 -129 10 -137 2z"/>
<path d="M1572 2220 c0 -14 2 -19 5 -12 2 6 2 18 0 25 -3 6 -5 1 -5 -13z"/>
<path d="M2900 2220 c-8 -5 -10 -10 -5 -10 6 0 17 5 25 10 8 5 11 10 5 10 -5
0 -17 -5 -25 -10z"/>
<path d="M146 2205 c-9 -26 -7 -32 5 -12 6 10 9 21 6 23 -2 3 -7 -2 -11 -11z"/>
<path d="M1299 2203 c-1 -5 -1 -11 0 -16 1 -4 -10 -5 -23 -1 -27 6 -40 -8 -31
-35 4 -14 14 -18 38 -17 21 0 31 -3 30 -11 -2 -7 6 -13 18 -13 11 0 17 5 14
10 -3 6 1 10 10 10 20 0 10 49 -14 67 -18 14 -40 17 -42 6z"/>
<path d="M1040 2171 c0 -5 -13 -8 -29 -6 -22 3 -31 -2 -41 -21 -12 -21 -11
-26 6 -39 10 -8 28 -14 39 -14 24 0 61 26 52 35 -4 4 -2 13 4 20 6 7 8 18 4
24 -8 12 -35 13 -35 1z m-35 -31 c3 -5 1 -10 -4 -10 -6 0 -11 5 -11 10 0 6 2
10 4 10 3 0 8 -4 11 -10z"/>
<path d="M1481 2164 c0 -11 3 -14 6 -6 3 7 2 16 -1 19 -3 4 -6 -2 -5 -13z"/>
<path d="M1564 2085 c0 -55 1 -76 3 -47 2 29 2 74 0 100 -2 26 -3 2 -3 -53z"/>
<path d="M2840 2145 c0 -5 5 -17 10 -25 5 -8 10 -10 10 -5 0 6 -5 17 -10 25
-5 8 -10 11 -10 5z"/>
<path d="M1472 2120 c0 -14 2 -19 5 -12 2 6 2 18 0 25 -3 6 -5 1 -5 -13z"/>
<path d="M258 2123 c7 -3 16 -2 19 1 4 3 -2 6 -13 5 -11 0 -14 -3 -6 -6z"/>
<path d="M96 2075 c-3 -9 -6 -22 -5 -28 0 -7 5 -1 10 12 5 13 8 26 5 28 -2 2
-6 -3 -10 -12z"/>
<path d="M965 2060 c-5 -15 0 -26 17 -39 24 -20 40 -19 20 1 -17 17 -15 28 6
28 15 1 15 2 -2 15 -26 20 -33 19 -41 -5z"/>
<path d="M1464 1990 c0 -52 1 -74 3 -47 2 26 2 68 0 95 -2 26 -3 4 -3 -48z"/>
<path d="M1696 2061 c-7 -10 27 -51 42 -51 5 0 23 -7 38 -15 42 -22 57 -20 44
5 -6 11 -9 24 -6 28 11 17 -12 30 -61 36 -29 3 -54 2 -57 -3z"/>
<path d="M910 2040 c0 -5 5 -10 10 -10 6 0 10 5 10 10 0 6 -4 10 -10 10 -5 0
-10 -4 -10 -10z"/>
<path d="M456 2015 c4 -8 8 -15 10 -15 2 0 4 7 4 15 0 8 -4 15 -10 15 -5 0 -7
-7 -4 -15z"/>
<path d="M1280 2020 c0 -5 10 -15 23 -21 22 -12 22 -12 3 10 -21 23 -26 26
-26 11z"/>
<path d="M890 2009 c0 -5 5 -7 10 -4 6 3 10 8 10 11 0 2 -4 4 -10 4 -5 0 -10
-5 -10 -11z"/>
<path d="M1851 2004 c10 -13 10 -17 -2 -25 -11 -7 -9 -9 9 -9 24 0 29 19 10
38 -18 18 -33 15 -17 -4z"/>
<path d="M2120 2012 c0 -5 7 -9 15 -9 8 0 12 4 9 9 -3 4 -9 8 -15 8 -5 0 -9
-4 -9 -8z"/>
<path d="M71 1984 c0 -11 3 -14 6 -6 3 7 2 16 -1 19 -3 4 -6 -2 -5 -13z"/>
<path d="M1753 1964 c1 -15 11 -32 22 -38 11 -6 22 -13 25 -16 5 -6 13 -6 68
-2 15 1 22 8 22 22 0 21 -14 27 -24 11 -4 -5 -20 -5 -41 2 -19 5 -32 14 -29
18 4 7 -26 29 -40 29 -3 0 -4 -12 -3 -26z"/>
<path d="M2144 1850 c0 -80 2 -112 3 -72 2 39 2 105 0 145 -1 39 -3 7 -3 -73z"/>
<path d="M1890 1970 c0 -5 5 -10 11 -10 5 0 7 5 4 10 -3 6 -8 10 -11 10 -2 0
-4 -4 -4 -10z"/>
<path d="M2112 1955 c0 -16 2 -22 5 -12 2 9 2 23 0 30 -3 6 -5 -1 -5 -18z"/>
<path d="M714 1959 c-10 -17 13 -36 27 -22 12 12 4 33 -11 33 -5 0 -12 -5 -16
-11z m26 -9 c0 -5 -4 -10 -10 -10 -5 0 -10 5 -10 10 0 6 5 10 10 10 6 0 10 -4
10 -10z"/>
<path d="M1074 1959 c-10 -17 13 -36 27 -22 12 12 4 33 -11 33 -5 0 -12 -5
-16 -11z m26 -9 c0 -5 -4 -10 -10 -10 -5 0 -10 5 -10 10 0 6 5 10 10 10 6 0
10 -4 10 -10z"/>
<path d="M1351 1960 c-1 -20 -55 -52 -74 -44 -24 9 -30 -14 -7 -28 27 -17 26
-27 -2 -21 -19 5 -21 3 -10 -8 7 -8 34 -13 65 -14 51 0 52 1 53 30 1 30 -24
113 -25 85z"/>
<path d="M1572 1950 c0 -14 2 -19 5 -12 2 6 2 18 0 25 -3 6 -5 1 -5 -13z"/>
<path d="M2911 1954 c0 -11 3 -14 6 -6 3 7 2 16 -1 19 -3 4 -6 -2 -5 -13z"/>
<path d="M61 1944 c0 -11 3 -14 6 -6 3 7 2 16 -1 19 -3 4 -6 -2 -5 -13z"/>
<path d="M852 1910 c7 -11 18 -20 24 -20 6 0 19 -9 29 -20 10 -11 13 -20 7
-20 -6 0 -9 -7 -6 -15 4 -10 0 -15 -12 -15 -16 0 -17 -2 -4 -10 17 -11 70 -13
54 -2 -6 4 -14 15 -17 26 -6 14 -4 17 9 12 21 -8 -18 48 -49 69 -32 23 -50 20
-35 -5z"/>
<path d="M1720 1921 c0 -5 7 -14 15 -21 12 -10 13 -16 4 -27 -15 -17 -9 -23
32 -28 18 -3 37 -11 41 -19 6 -11 24 -15 63 -14 30 1 55 3 55 5 0 10 -112 73
-129 73 -11 0 -25 9 -31 20 -10 20 -50 28 -50 11z"/>
<path d="M51 1904 c0 -11 3 -14 6 -6 3 7 2 16 -1 19 -3 4 -6 -2 -5 -13z"/>
<path d="M1581 1904 c0 -11 3 -14 6 -6 3 7 2 16 -1 19 -3 4 -6 -2 -5 -13z"/>
<path d="M2103 1865 c0 -22 2 -30 4 -17 2 12 2 30 0 40 -3 9 -5 -1 -4 -23z"/>
<path d="M2931 1884 c0 -11 3 -14 6 -6 3 7 2 16 -1 19 -3 4 -6 -2 -5 -13z"/>
<path d="M188 1883 c6 -2 18 -2 25 0 6 3 1 5 -13 5 -14 0 -19 -2 -12 -5z"/>
<path d="M1121 1864 c0 -11 3 -14 6 -6 3 7 2 16 -1 19 -3 4 -6 -2 -5 -13z"/>
<path d="M1472 1860 c0 -14 2 -19 5 -12 2 6 2 18 0 25 -3 6 -5 1 -5 -13z"/>
<path d="M1591 1864 c0 -11 3 -14 6 -6 3 7 2 16 -1 19 -3 4 -6 -2 -5 -13z"/>
<path d="M42 1850 c0 -14 2 -19 5 -12 2 6 2 18 0 25 -3 6 -5 1 -5 -13z"/>
<path d="M2941 1844 c0 -11 3 -14 6 -6 3 7 2 16 -1 19 -3 4 -6 -2 -5 -13z"/>
<path d="M1131 1824 c0 -11 3 -14 6 -6 3 7 2 16 -1 19 -3 4 -6 -2 -5 -13z"/>
<path d="M1318 1823 c6 -2 18 -2 25 0 6 3 1 5 -13 5 -14 0 -19 -2 -12 -5z"/>
<path d="M2952 1800 c0 -14 2 -19 5 -12 2 6 2 18 0 25 -3 6 -5 1 -5 -13z"/>
<path d="M32 1785 c0 -16 2 -22 5 -12 2 9 2 23 0 30 -3 6 -5 -1 -5 -18z"/>
<path d="M781 1784 c0 -11 3 -14 6 -6 3 7 2 16 -1 19 -3 4 -6 -2 -5 -13z"/>
<path d="M444 1779 c-9 -16 18 -30 33 -17 7 6 13 14 13 19 0 13 -38 11 -46 -2z"/>
<path d="M1141 1774 c0 -11 3 -14 6 -6 3 7 2 16 -1 19 -3 4 -6 -2 -5 -13z"/>
<path d="M2093 1750 c0 -25 2 -35 4 -22 2 12 2 32 0 45 -2 12 -4 2 -4 -23z"/>
<path d="M2962 1750 c0 -14 2 -19 5 -12 2 6 2 18 0 25 -3 6 -5 1 -5 -13z"/>
<path d="M493 1735 c4 -8 2 -17 -3 -20 -6 -4 -10 -15 -10 -26 0 -29 50 -119
66 -119 8 0 14 -7 14 -15 0 -8 5 -15 12 -15 6 0 3 -6 -8 -14 -24 -18 -11 -33
31 -38 28 -3 30 -1 33 37 2 33 -2 46 -26 70 -16 17 -32 44 -36 61 -4 17 -19
45 -33 63 -27 32 -49 42 -40 16z"/>
<path d="M792 1730 c0 -14 2 -19 5 -12 2 6 2 18 0 25 -3 6 -5 1 -5 -13z"/>
<path d="M1152 1715 c0 -16 2 -22 5 -12 2 9 2 23 0 30 -3 6 -5 -1 -5 -18z"/>
<path d="M23 1680 c0 -30 2 -43 4 -27 2 15 2 39 0 55 -2 15 -4 2 -4 -28z"/>
<path d="M1650 1715 c0 -5 5 -17 10 -25 5 -8 10 -10 10 -5 0 6 -5 17 -10 25
-5 8 -10 11 -10 5z"/>
<path d="M2972 1680 c0 -19 2 -27 5 -17 2 9 2 25 0 35 -3 9 -5 1 -5 -18z"/>
<path d="M2058 1693 c7 -3 16 -2 19 1 4 3 -2 6 -13 5 -11 0 -14 -3 -6 -6z"/>
<path d="M2218 1693 c7 -3 16 -2 19 1 4 3 -2 6 -13 5 -11 0 -14 -3 -6 -6z"/>
<path d="M803 1640 c0 -25 2 -35 4 -22 2 12 2 32 0 45 -2 12 -4 2 -4 -23z"/>
<path d="M1074 1455 c0 -126 2 -177 3 -112 2 65 2 168 0 230 -1 62 -3 9 -3
-118z"/>
<path d="M1992 1660 c0 -14 2 -19 5 -12 2 6 2 18 0 25 -3 6 -5 1 -5 -13z"/>
<path d="M1330 1656 c-6 -8 -18 -12 -26 -9 -8 3 -14 1 -14 -5 0 -6 14 -13 30
-17 24 -5 29 -11 25 -25 -3 -10 -1 -21 5 -25 13 -8 13 -35 -1 -35 -6 0 -9 7
-5 15 3 8 1 15 -3 15 -5 0 -11 -6 -14 -14 -8 -20 3 -56 17 -56 7 0 22 -9 34
-20 12 -11 29 -20 40 -20 10 0 23 -5 30 -12 7 -7 12 -8 12 -2 0 5 -5 15 -12
22 -20 20 1 26 22 7 19 -18 20 -17 20 3 0 12 -9 31 -20 42 -11 11 -20 24 -20
29 0 4 -12 22 -27 39 -44 49 -53 61 -53 72 0 15 -26 12 -40 -4z"/>
<path d="M2315 1660 c3 -5 8 -10 11 -10 2 0 4 5 4 10 0 6 -5 10 -11 10 -5 0
-7 -4 -4 -10z"/>
<path d="M722 1444 c-1 -160 1 -223 10 -232 15 -15 28 -16 28 -2 0 6 -6 9 -12
8 -10 -2 -14 50 -18 222 l-6 225 -2 -221z"/>
<path d="M1164 1560 c0 -52 1 -74 3 -47 2 26 2 68 0 95 -2 26 -3 4 -3 -48z"/>
<path d="M1680 1645 c0 -5 5 -17 10 -25 5 -8 10 -10 10 -5 0 6 -5 17 -10 25
-5 8 -10 11 -10 5z"/>
<path d="M2168 1643 c6 -2 18 -2 25 0 6 3 1 5 -13 5 -14 0 -19 -2 -12 -5z"/>
<path d="M2084 1500 c0 -80 2 -112 3 -72 2 39 2 105 0 145 -1 39 -3 7 -3 -73z"/>
<path d="M2143 1570 c0 -41 2 -58 4 -37 2 20 2 54 0 75 -2 20 -4 3 -4 -38z"/>
<path d="M188 1613 c6 -2 18 -2 25 0 6 3 1 5 -13 5 -14 0 -19 -2 -12 -5z"/>
<path d="M2984 1495 c0 -71 1 -99 3 -62 2 37 2 96 0 130 -2 34 -3 4 -3 -68z"/>
<path d="M140 1539 c0 -5 5 -7 10 -4 6 3 10 8 10 11 0 2 -4 4 -10 4 -5 0 -10
-5 -10 -11z"/>
<path d="M23 1485 c0 -33 2 -45 4 -27 2 18 2 45 0 60 -2 15 -4 0 -4 -33z"/>
<path d="M930 1511 c0 -6 -7 -11 -16 -11 -21 0 -13 -22 13 -35 12 -6 28 -17
37 -24 10 -8 16 -9 16 -3 0 6 -4 14 -10 17 -5 3 -10 14 -10 24 0 10 -7 24 -15
31 -10 9 -15 9 -15 1z"/>
<path d="M803 1460 c0 -25 2 -35 4 -22 2 12 2 32 0 45 -2 12 -4 2 -4 -23z"/>
<path d="M1751 1434 c0 -11 3 -14 6 -6 3 7 2 16 -1 19 -3 4 -6 -2 -5 -13z"/>
<path d="M1152 1415 c0 -16 2 -22 5 -12 2 9 2 23 0 30 -3 6 -5 -1 -5 -18z"/>
<path d="M904 1422 c-6 -4 -15 -29 -19 -57 -10 -74 -52 -198 -76 -229 -29 -37
-77 -36 -124 5 -22 19 -35 40 -35 55 0 27 -1 27 -84 25 -37 0 -66 -7 -76 -16
-11 -10 -37 -15 -73 -15 -42 0 -57 -4 -57 -14 0 -26 30 -86 43 -86 8 0 13 -13
13 -34 0 -68 174 -314 295 -417 138 -117 325 -225 454 -262 l50 -14 77 114 78
115 -10 44 c-9 40 -8 47 11 67 15 15 23 18 26 10 3 -7 11 -13 18 -13 15 0 82
160 91 220 6 36 4 42 -15 47 -11 3 -21 10 -21 15 0 6 8 8 19 5 17 -4 18 0 14
37 -5 46 -7 57 -22 104 -9 29 -8 32 4 22 12 -10 15 -9 15 4 0 9 7 16 15 16 19
0 19 9 -1 48 -9 19 -23 32 -34 32 -23 0 -42 32 -34 55 12 29 -16 33 -78 12
-50 -17 -61 -18 -68 -6 -7 10 -12 11 -21 2 -13 -13 -3 -37 12 -28 5 4 9 -1 9
-9 0 -9 -12 -19 -27 -22 -40 -10 -49 -20 -77 -80 -26 -56 -28 -57 -86 -54 -80
4 -110 54 -111 190 -1 74 -4 92 -17 99 -28 14 -67 21 -78 13z m-369 -342 c3
-5 -3 -10 -14 -10 -11 0 -23 5 -26 10 -3 6 3 10 14 10 11 0 23 -4 26 -10z
m919 -26 c3 -8 2 -12 -4 -9 -6 3 -10 10 -10 16 0 14 7 11 14 -7z m-18 -30 c9
-37 -15 -57 -75 -60 -28 -1 -51 -1 -51 1 0 6 63 35 77 35 7 0 13 8 13 18 0 39
27 43 36 6z m-79 -86 c-2 -7 2 -20 9 -29 12 -14 12 -18 -4 -32 -28 -26 -77
-13 -79 20 -1 19 1 22 8 12 7 -11 9 -9 9 8 0 20 7 24 53 32 5 0 7 -5 4 -11z
m63 -9 c-7 -11 -14 -18 -17 -15 -8 8 5 36 17 36 7 0 7 -6 0 -21z m-20 -77 c0
-5 -9 -17 -20 -27 -16 -14 -20 -15 -20 -4 0 16 19 39 32 39 4 0 8 -4 8 -8z
m-50 -71 c0 -5 -7 -14 -15 -21 -16 -14 -18 -10 -9 14 6 17 24 22 24 7z"/>
<path d="M150 1399 c0 -5 11 -9 25 -9 14 0 25 2 25 4 0 2 -11 6 -25 8 -14 3
-25 1 -25 -3z"/>
<path d="M1762 1390 c0 -14 2 -19 5 -12 2 6 2 18 0 25 -3 6 -5 1 -5 -13z"/>
<path d="M32 1375 c0 -16 2 -22 5 -12 2 9 2 23 0 30 -3 6 -5 -1 -5 -18z"/>
<path d="M792 1370 c0 -14 2 -19 5 -12 2 6 2 18 0 25 -3 6 -5 1 -5 -13z"/>
<path d="M2570 1376 c0 -8 5 -18 10 -21 6 -3 10 3 10 14 0 12 -4 21 -10 21 -5
0 -10 -6 -10 -14z"/>
<path d="M1632 1360 c0 -14 2 -19 5 -12 2 6 2 18 0 25 -3 6 -5 1 -5 -13z"/>
<path d="M1142 1350 c0 -14 2 -19 5 -12 2 6 2 18 0 25 -3 6 -5 1 -5 -13z"/>
<path d="M198 1353 c-28 -3 -38 -9 -37 -21 0 -11 3 -12 6 -4 2 6 18 12 33 12
16 0 32 5 35 10 3 6 5 9 3 8 -2 -1 -20 -3 -40 -5z"/>
<path d="M2390 1345 c0 -8 5 -15 10 -15 18 0 11 -29 -10 -42 -11 -7 -20 -19
-20 -26 0 -8 17 -3 51 14 l51 27 -34 28 c-37 33 -48 36 -48 14z"/>
<path d="M1772 1320 c0 -19 2 -27 5 -17 2 9 2 25 0 35 -3 9 -5 1 -5 -18z"/>
<path d="M2487 1339 c-15 -9 -15 -12 -3 -25 8 -8 22 -14 30 -14 9 0 25 -6 36
-12 14 -9 22 -10 31 -1 8 8 1 14 -25 23 -20 6 -39 18 -43 25 -6 10 -13 11 -26
4z"/>
<path d="M782 1320 c0 -14 2 -19 5 -12 2 6 2 18 0 25 -3 6 -5 1 -5 -13z"/>
<path d="M2092 1315 c0 -16 2 -22 5 -12 2 9 2 23 0 30 -3 6 -5 -1 -5 -18z"/>
<path d="M2972 1315 c0 -16 2 -22 5 -12 2 9 2 23 0 30 -3 6 -5 -1 -5 -18z"/>
<path d="M42 1310 c0 -14 2 -19 5 -12 2 6 2 18 0 25 -3 6 -5 1 -5 -13z"/>
<path d="M1642 1305 c0 -16 2 -22 5 -12 2 9 2 23 0 30 -3 6 -5 -1 -5 -18z"/>
<path d="M1131 1304 c0 -11 3 -14 6 -6 3 7 2 16 -1 19 -3 4 -6 -2 -5 -13z"/>
<path d="M170 1283 c0 -10 4 -14 8 -8 4 6 11 13 16 18 5 4 2 7 -7 7 -10 0 -17
-8 -17 -17z"/>
<path d="M771 1274 c0 -11 3 -14 6 -6 3 7 2 16 -1 19 -3 4 -6 -2 -5 -13z"/>
<path d="M2142 1265 c0 -16 2 -22 5 -12 2 9 2 23 0 30 -3 6 -5 -1 -5 -18z"/>
<path d="M1121 1264 c0 -11 3 -14 6 -6 3 7 2 16 -1 19 -3 4 -6 -2 -5 -13z"/>
<path d="M51 1254 c0 -11 3 -14 6 -6 3 7 2 16 -1 19 -3 4 -6 -2 -5 -13z"/>
<path d="M2962 1250 c0 -14 2 -19 5 -12 2 6 2 18 0 25 -3 6 -5 1 -5 -13z"/>
<path d="M1653 1185 c0 -44 2 -61 4 -37 2 23 2 59 0 80 -2 20 -4 1 -4 -43z"/>
<path d="M2540 1252 c1 -22 73 -62 87 -49 3 4 -3 10 -13 14 -10 4 -23 12 -29
18 -12 15 -45 27 -45 17z"/>
<path d="M61 1214 c0 -11 3 -14 6 -6 3 7 2 16 -1 19 -3 4 -6 -2 -5 -13z"/>
<path d="M213 1213 c-13 -2 -23 -8 -23 -13 0 -5 14 -4 30 1 27 10 42 21 23 18
-5 -1 -18 -4 -30 -6z"/>
<path d="M1080 1216 c0 -2 7 -9 15 -16 9 -7 15 -8 15 -2 0 5 -7 12 -15 16 -8
3 -15 4 -15 2z"/>
<path d="M2951 1194 c0 -11 3 -14 6 -6 3 7 2 16 -1 19 -3 4 -6 -2 -5 -13z"/>
<path d="M2140 1186 c7 -7 13 -7 20 0 6 6 3 10 -10 10 -13 0 -16 -4 -10 -10z"/>
<path d="M71 1174 c0 -11 3 -14 6 -6 3 7 2 16 -1 19 -3 4 -6 -2 -5 -13z"/>
<path d="M1772 1160 c0 -19 2 -27 5 -17 2 9 2 25 0 35 -3 9 -5 1 -5 -18z"/>
<path d="M2520 1170 c0 -5 6 -10 14 -10 8 0 18 5 21 10 3 6 -3 10 -14 10 -12
0 -21 -4 -21 -10z"/>
<path d="M2588 1173 c-24 -6 -23 -23 2 -23 11 0 20 7 20 15 0 8 -1 14 -2 14
-2 -1 -11 -3 -20 -6z"/>
<path d="M2941 1154 c0 -11 3 -14 6 -6 3 7 2 16 -1 19 -3 4 -6 -2 -5 -13z"/>
<path d="M2361 1123 c1 -10 5 -31 9 -48 l8 -30 1 27 c0 15 6 30 11 33 8 5 7
11 -1 21 -16 19 -29 18 -28 -3z"/>
<path d="M270 1100 c-18 -12 -2 -12 25 0 13 6 15 9 5 9 -8 0 -22 -4 -30 -9z"/>
<path d="M1761 1094 c0 -11 3 -14 6 -6 3 7 2 16 -1 19 -3 4 -6 -2 -5 -13z"/>
<path d="M225 1080 c-3 -5 -2 -10 4 -10 5 0 13 5 16 10 3 6 2 10 -4 10 -5 0
-13 -4 -16 -10z"/>
<path d="M1642 1070 c0 -14 2 -19 5 -12 2 6 2 18 0 25 -3 6 -5 1 -5 -13z"/>
<path d="M2713 1075 c-7 -8 -9 -16 -4 -19 5 -3 12 1 15 10 8 22 4 25 -11 9z"/>
<path d="M1751 1054 c0 -11 3 -14 6 -6 3 7 2 16 -1 19 -3 4 -6 -2 -5 -13z"/>
<path d="M1860 1033 c-6 -15 -15 -37 -20 -48 -5 -11 -22 -49 -38 -85 -62 -140
-183 -305 -343 -467 l-100 -102 48 -8 c113 -19 421 0 438 27 3 5 12 7 20 4 30
-12 35 8 10 38 -34 41 -33 92 2 57 6 -6 22 -17 35 -23 12 -6 24 -21 26 -33 3
-19 6 -20 38 -10 48 15 58 37 39 84 -9 20 -21 40 -26 44 -11 7 5 70 24 97 11
14 20 168 11 195 -4 13 -12 15 -30 11 -14 -4 -36 -1 -49 6 -20 11 -22 16 -14
33 14 26 2 102 -19 124 -9 9 -17 30 -17 46 0 40 -22 46 -35 10z"/>
<path d="M1955 1027 c-4 -10 -5 -21 -1 -24 10 -10 18 4 13 24 -4 17 -4 17 -12
0z"/>
<path d="M1631 1014 c0 -11 3 -14 6 -6 3 7 2 16 -1 19 -3 4 -6 -2 -5 -13z"/>
<path d="M2666 991 c-17 -19 -17 -19 3 -14 12 3 21 12 21 19 0 18 -4 18 -24
-5z"/>
<path d="M140 975 c0 -5 5 -17 10 -25 5 -8 10 -10 10 -5 0 6 -5 17 -10 25 -5
8 -10 11 -10 5z"/>
<path d="M1687 895 c-15 -30 -25 -55 -22 -55 7 0 57 101 53 106 -2 2 -16 -21
-31 -51z"/>
<path d="M2842 895 c-12 -25 -20 -45 -17 -45 7 0 47 81 43 86 -3 2 -14 -17
-26 -41z"/>
<path d="M1992 890 c0 -19 2 -27 5 -17 2 9 2 25 0 35 -3 9 -5 1 -5 -18z"/>
<path d="M2050 880 c0 -11 5 -20 10 -20 6 0 10 9 10 20 0 11 -4 20 -10 20 -5
0 -10 -9 -10 -20z"/>
<path d="M2389 856 c-40 -21 -44 -27 -43 -58 1 -20 16 -62 36 -97 l35 -62 87
92 c47 50 86 96 86 100 0 5 -16 9 -35 9 -33 0 -40 -7 -36 -37 1 -7 -7 -22 -18
-34 -15 -16 -27 -20 -45 -15 -33 8 -33 31 -2 51 32 21 38 49 15 63 -25 16 -29
15 -80 -12z"/>
<path d="M2078 825 c-6 -27 6 -24 22 6 8 15 7 19 -3 19 -8 0 -17 -11 -19 -25z"/>
<path d="M220 810 c6 -11 13 -20 16 -20 2 0 0 9 -6 20 -6 11 -13 20 -16 20 -2
0 0 -9 6 -20z"/>
<path d="M1542 775 c-17 -37 -14 -45 4 -12 9 16 14 31 11 33 -2 2 -9 -7 -15
-21z"/>
<path d="M2140 793 c8 -4 20 -13 27 -22 7 -9 13 -11 13 -5 0 15 -22 34 -39 33
-14 0 -14 -1 -1 -6z"/>
<path d="M2765 764 c-9 -15 -12 -23 -6 -20 11 7 35 46 28 46 -3 0 -12 -12 -22
-26z"/>
<path d="M2143 752 c-6 -4 -13 -21 -15 -37 -2 -22 -9 -31 -25 -33 -15 -2 -23
-10 -23 -23 0 -11 -12 -36 -27 -55 -24 -32 -25 -38 -15 -68 7 -19 10 -40 7
-48 -3 -8 6 -25 20 -38 l26 -25 54 29 c68 35 95 63 75 76 -38 24 -50 36 -50
52 0 22 -30 58 -47 58 -17 0 -17 0 14 59 26 51 28 66 6 53z"/>
<path d="M1569 703 c-13 -16 -12 -17 4 -4 16 13 21 21 13 21 -2 0 -10 -8 -17
-17z"/>
<path d="M1485 660 c-9 -16 -13 -30 -11 -30 3 0 12 14 21 30 9 17 13 30 11 30
-3 0 -12 -13 -21 -30z"/>
<path d="M2699 673 c-13 -16 -12 -17 4 -4 16 13 21 21 13 21 -2 0 -10 -8 -17
-17z"/>
<path d="M1539 663 c-13 -16 -12 -17 4 -4 16 13 21 21 13 21 -2 0 -10 -8 -17
-17z"/>
<path d="M2615 578 l-60 -63 63 60 c58 55 67 65 59 65 -1 0 -29 -28 -62 -62z"/>
<path d="M1494 608 l-19 -23 23 19 c21 18 27 26 19 26 -2 0 -12 -10 -23 -22z"/>
<path d="M350 616 c0 -2 8 -10 18 -17 15 -13 16 -12 3 4 -13 16 -21 21 -21 13z"/>
<path d="M1431 561 c-6 -10 -7 -21 -4 -25 3 -3 2 -6 -3 -6 -5 0 -18 -15 -28
-32 -11 -18 -17 -31 -14 -28 35 36 88 101 74 90 -18 -14 -19 -13 -13 3 9 23 0
22 -12 -2z"/>
<path d="M475 480 c49 -49 92 -90 95 -90 2 0 -36 41 -85 90 -49 50 -92 90 -95
90 -2 0 36 -40 85 -90z"/>
<path d="M2519 493 c-13 -16 -12 -17 4 -4 16 13 21 21 13 21 -2 0 -10 -8 -17
-17z"/>
<path d="M590 376 c0 -2 8 -10 18 -17 15 -13 16 -12 3 4 -13 16 -21 21 -21 13z"/>
<path d="M2300 355 c-14 -8 -20 -14 -14 -15 5 0 19 7 30 15 24 18 16 19 -16 0z"/>
<path d="M2200 310 c-8 -5 -10 -10 -5 -10 6 0 17 5 25 10 8 5 11 10 5 10 -5 0
-17 -5 -25 -10z"/>
<path d="M1245 300 c-3 -5 -3 -14 0 -20 3 -5 1 -10 -4 -10 -6 0 -11 -5 -11
-11 0 -8 4 -8 14 1 8 6 12 19 9 27 -4 11 -2 14 5 9 7 -4 12 -2 12 3 0 14 -17
14 -25 1z"/>
<path d="M2038 253 c7 -3 16 -2 19 1 4 3 -2 6 -13 5 -11 0 -14 -3 -6 -6z"/>
<path d="M1998 243 c7 -3 16 -2 19 1 4 3 -2 6 -13 5 -11 0 -14 -3 -6 -6z"/>
<path d="M790 236 c0 -3 9 -10 20 -16 11 -6 20 -8 20 -6 0 3 -9 10 -20 16 -11
6 -20 8 -20 6z"/>
<path d="M1207 233 c-4 -3 -7 -13 -7 -21 0 -18 13 -7 16 13 2 17 1 18 -9 8z"/>
<path d="M1938 233 c6 -2 18 -2 25 0 6 3 1 5 -13 5 -14 0 -19 -2 -12 -5z"/>
<path d="M1883 223 c9 -2 23 -2 30 0 6 3 -1 5 -18 5 -16 0 -22 -2 -12 -5z"/>
<path d="M1798 213 c12 -2 30 -2 40 0 9 3 -1 5 -23 4 -22 0 -30 -2 -17 -4z"/>
<path d="M1622 118 l2 -93 3 87 4 87 47 4 47 3 -52 2 -53 2 2 -92z"/>
<path d="M950 150 c8 -5 20 -10 25 -10 6 0 3 5 -5 10 -8 5 -19 10 -25 10 -5 0
-3 -5 5 -10z"/>
<path d="M1168 73 c7 -3 16 -2 19 1 4 3 -2 6 -13 5 -11 0 -14 -3 -6 -6z"/>
<path d="M1208 63 c7 -3 16 -2 19 1 4 3 -2 6 -13 5 -11 0 -14 -3 -6 -6z"/>
<path d="M1248 53 c7 -3 16 -2 19 1 4 3 -2 6 -13 5 -11 0 -14 -3 -6 -6z"/>
<path d="M1298 43 c6 -2 18 -2 25 0 6 3 1 5 -13 5 -14 0 -19 -2 -12 -5z"/>
<path d="M1363 33 c9 -2 23 -2 30 0 6 3 -1 5 -18 5 -16 0 -22 -2 -12 -5z"/>
<path d="M1458 23 c18 -2 45 -2 60 0 15 2 0 4 -33 4 -33 0 -45 -2 -27 -4z"/>
</g>
</svg>
